<svg width="457" height="91" fill="none" xmlns="http://www.w3.org/2000/svg"><path d="M32.07 48.434l-17.252.01.01 17.68-10.698.006-.026-44.38 29.688-.017.005 8.26-18.99.011.006 10.211 17.252-.01.005 8.23zm19.076 9.437l18.624-.011.005 8.23-29.322.017-.027-44.378 10.699-.007.021 36.15zm59.375-36.185l.017 29.048c.001 3.292-.698 6.147-2.098 8.566-1.4 2.399-3.411 4.228-6.031 5.49-2.621 1.262-5.72 1.893-9.297 1.895-5.404.004-9.662-1.395-12.773-4.198-3.11-2.802-4.698-6.642-4.761-11.519l-.018-29.26 10.76-.007.017 29.474c.124 4.857 2.382 7.283 6.771 7.28 2.215 0 3.891-.611 5.028-1.831 1.137-1.22 1.705-3.202 1.704-5.945l-.018-28.986 10.699-.007zm36.429 25.551l-16.825.01.006 10.577 19.873-.012.005 8.229-30.572.019-.026-44.38 30.633-.018.005 8.26-19.935.012.006 9.358 16.825-.01.005 7.955zm46.667 18.778l-10.638.007-15.745-27.606.017 27.615-10.698.007-.027-44.38 10.699-.006 15.713 27.605-.015-27.615 10.667-.006.027 44.379zm42.854-36.145l-13.32.008.022 36.12-10.699.006-.022-36.12-13.075.008-.005-8.26 37.095-.022.004 8.26z" fill="#000"/><path d="M266.103 54.175c-.001-1.564-.561-2.783-1.678-3.656-1.099-.873-3.04-1.776-5.824-2.71-2.784-.932-5.061-1.835-6.829-2.708-5.753-2.821-8.63-6.7-8.633-11.638-.001-2.459.709-4.623 2.13-6.494 1.441-1.89 3.472-3.355 6.093-4.393 2.621-1.058 5.567-1.588 8.839-1.59 3.189-.002 6.045.565 8.566 1.702 2.54 1.136 4.512 2.76 5.915 4.873 1.404 2.092 2.107 4.49 2.109 7.192l-10.669.007c-.001-1.809-.561-3.21-1.68-4.206-1.097-.995-2.591-1.492-4.48-1.49-1.91 0-3.424.428-4.542 1.282-1.096.834-1.644 1.901-1.643 3.202 0 1.138.611 2.174 1.831 3.108 1.219.913 3.364 1.867 6.432 2.86 3.069.974 5.59 2.03 7.561 3.166 4.798 2.76 7.198 6.57 7.2 11.426.002 3.881-1.458 6.93-4.383 9.147-2.925 2.216-6.938 3.326-12.039 3.33-3.595.002-6.858-.637-9.784-1.915-2.907-1.299-5.103-3.065-6.587-5.3-1.465-2.254-2.198-4.845-2.199-7.77l10.729-.007c.001 2.377.612 4.134 1.831 5.272 1.241 1.116 3.243 1.674 6.006 1.672 1.768 0 3.16-.377 4.176-1.13 1.035-.773 1.552-1.85 1.552-3.232zm33.454-4.744l-4.386 4.818.007 11.705-10.699.006-.026-44.379 10.699-.006.011 19.568 3.716-5.641 9.562-13.935 13.228-.009-14.984 19.639 15.011 24.74-12.68.008-9.459-16.514zm38.436 16.497l-10.668.006-.026-44.379 10.668-.006.026 44.379zm20.316-8.242l18.623-.011.005 8.23-29.321.017-.027-44.38 10.698-.006.022 36.15zm36.017-.022l18.624-.011.004 8.23-29.321.017-.026-44.379 10.698-.006.021 36.149zm48.208-3.595c-.001-1.565-.56-2.784-1.678-3.657-1.099-.873-3.039-1.776-5.824-2.71-2.785-.932-5.06-1.835-6.829-2.708-5.752-2.82-8.63-6.7-8.633-11.638-.001-2.459.709-4.623 2.13-6.494 1.442-1.89 3.474-3.354 6.094-4.392 2.62-1.059 5.566-1.589 8.838-1.59 3.191-.002 6.045.565 8.566 1.701 2.541 1.136 4.512 2.76 5.916 4.873 1.403 2.092 2.106 4.49 2.108 7.192l-10.669.007c-.001-1.809-.561-3.21-1.679-4.205-1.098-.995-2.591-1.492-4.482-1.491-1.909 0-3.423.428-4.54 1.283-1.097.833-1.645 1.9-1.644 3.201.001 1.138.612 2.174 1.831 3.108 1.219.914 3.364 1.867 6.433 2.861 3.069.974 5.589 2.029 7.561 3.166 4.797 2.76 7.196 6.569 7.2 11.425.002 3.881-1.459 6.93-4.384 9.147-2.925 2.217-6.938 3.327-12.037 3.33-3.598.002-6.859-.636-9.786-1.915-2.906-1.299-5.102-3.065-6.587-5.3-1.464-2.254-2.197-4.844-2.199-7.77l10.729-.007c.002 2.377.612 4.135 1.832 5.272 1.24 1.117 3.242 1.674 6.006 1.673 1.767-.001 3.159-.378 4.174-1.13 1.036-.773 1.554-1.85 1.553-3.232z" fill="#FA1100"/><path d="M32.223 40.093l-.072 8.354-27.569-.237.072-8.354 27.57.237z" fill="#FA1100" stroke="#FA1100" stroke-width=".149"/></svg>