<svg width="307" height="47" fill="none" xmlns="http://www.w3.org/2000/svg"><path d="M19.616 24.922H8.806V36H2.1V8.19h18.604v5.176h-11.9v6.399h10.811v5.157zm11.95 5.92h11.671V36H24.863V8.19h6.704v22.653zM68.788 8.19v18.203c0 2.062-.439 3.851-1.318 5.367-.878 1.502-2.139 2.648-3.781 3.438-1.643.79-3.585 1.184-5.826 1.184-3.387 0-6.055-.879-8.003-2.636-1.948-1.757-2.942-4.164-2.98-7.22V8.19h6.743v18.47c.076 3.043 1.49 4.565 4.24 4.565 1.388 0 2.438-.382 3.152-1.146.713-.764 1.07-2.006 1.07-3.725V8.19h6.703zm22.82 16.025H81.062v6.628h12.453V36H74.36V8.19h19.196v5.176H81.063v5.864h10.543v4.985zM120.842 36h-6.666l-9.856-17.305V36h-6.704V8.19h6.704l9.837 17.305V8.19h6.685V36zm26.868-22.634h-8.347V36h-6.704V13.366h-8.194V8.19h23.245v5.176zm6.125 25.022h-4.565l9.493-30.198h4.584l-9.512 30.198z" fill="#fff"/><path d="M181.392 28.608c0-.98-.35-1.744-1.05-2.292-.688-.547-1.904-1.114-3.649-1.7-1.744-.586-3.17-1.152-4.278-1.7-3.604-1.77-5.406-4.202-5.406-7.296 0-1.54.446-2.897 1.337-4.068.905-1.185 2.178-2.102 3.821-2.751 1.642-.662 3.489-.993 5.539-.993 1.999 0 3.788.356 5.367 1.07 1.592.713 2.827 1.731 3.705 3.056.879 1.311 1.318 2.814 1.318 4.507h-6.685c0-1.133-.35-2.012-1.05-2.636-.688-.624-1.624-.936-2.808-.936-1.197 0-2.146.268-2.846.803-.688.522-1.032 1.19-1.032 2.005 0 .713.382 1.363 1.146 1.948.765.573 2.108 1.172 4.031 1.796 1.922.611 3.501 1.273 4.737 1.986 3.005 1.732 4.507 4.12 4.507 7.163 0 2.432-.917 4.342-2.75 5.73-1.834 1.388-4.349 2.082-7.545 2.082-2.254 0-4.297-.401-6.131-1.203-1.821-.815-3.196-1.923-4.126-3.324-.917-1.413-1.375-3.037-1.375-4.87h6.723c0 1.49.382 2.59 1.146 3.304.777.7 2.031 1.05 3.763 1.05 1.108 0 1.98-.235 2.617-.706.649-.484.974-1.159.974-2.025zm20.966-2.96l-2.75 3.017V36h-6.705V8.19h6.705v12.262l2.33-3.533 5.997-8.73h8.29l-9.397 12.302L216.225 36h-7.946l-5.921-10.352zM226.438 36h-6.685V8.19h6.685V36zm12.734-5.157h11.67V36h-18.375V8.19h6.705v22.653zm22.57 0h11.67V36h-18.374V8.19h6.704v22.653zm30.211-2.235c0-.98-.35-1.744-1.051-2.292-.687-.547-1.903-1.114-3.648-1.7-1.744-.586-3.17-1.152-4.278-1.7-3.604-1.77-5.406-4.202-5.406-7.296 0-1.54.446-2.897 1.337-4.068.904-1.185 2.178-2.102 3.82-2.751 1.643-.662 3.489-.993 5.539-.993 2 0 3.789.356 5.368 1.07 1.591.713 2.827 1.731 3.705 3.056.879 1.311 1.318 2.814 1.318 4.507h-6.685c0-1.133-.35-2.012-1.051-2.636-.687-.624-1.623-.936-2.807-.936-1.197 0-2.146.268-2.846.803-.688.522-1.032 1.19-1.032 2.005 0 .713.382 1.363 1.146 1.948.764.573 2.108 1.172 4.031 1.796 1.922.611 3.501 1.273 4.736 1.986 3.006 1.732 4.508 4.12 4.508 7.163 0 2.432-.917 4.342-2.75 5.73-1.834 1.388-4.349 2.082-7.545 2.082-2.254 0-4.298-.401-6.131-1.203-1.821-.815-3.196-1.923-4.126-3.324-.917-1.413-1.375-3.037-1.375-4.87h6.723c0 1.49.382 2.59 1.146 3.304.777.7 2.031 1.05 3.763 1.05 1.108 0 1.98-.235 2.617-.706.649-.484.974-1.159.974-2.025z" fill="#FA1100"/><path d="M19.64 19.8v5.133H2.04v-5.134h17.6z" fill="#FA1100" stroke="#FA1100" stroke-width=".093"/></svg>