<svg width="573" height="213" fill="none" xmlns="http://www.w3.org/2000/svg"><path d="M43.758 165.097l-20.56 1.812 1.858 21.097-12.75 1.123-4.665-52.961 35.381-3.117.869 9.857-22.631 1.994 1.073 12.186 20.56-1.812.865 9.821zm23.721 9.274l22.195-1.956.865 9.822-34.945 3.078-4.665-52.961 12.75-1.123 3.8 43.14zm66.987-49.376l3.053 34.665c.345 3.928-.19 7.409-1.606 10.442-1.419 3.008-3.624 5.402-6.615 7.18-2.992 1.78-6.619 2.856-10.882 3.232-6.441.567-11.662-.658-15.662-3.679-4-3.02-6.292-7.437-6.877-13.25L92.8 128.666l12.823-1.13 3.097 35.174c.656 5.783 3.6 8.443 8.831 7.982 2.64-.232 4.573-1.135 5.801-2.71 1.228-1.574 1.698-3.998 1.41-7.272l-3.048-34.592 12.751-1.123zm46.085 26.695l-20.051 1.766 1.111 12.622 23.684-2.086.865 9.82-36.434 3.211-4.665-52.961 36.507-3.217.868 9.858-23.757 2.093.984 11.166 20.051-1.766.837 9.494zm57.579 17.544l-12.677 1.117-21.648-31.304 2.903 32.956-12.749 1.123-4.666-52.961 12.751-1.124 21.61 31.307-2.902-32.955 12.713-1.12 4.665 52.961zm47.301-47.605l-15.874 1.398 3.797 43.104-12.75 1.123-3.798-43.103-15.582 1.373-.868-9.858 44.208-3.895.867 9.858z" fill="#fff"/><path d="M346.08 147.382c-.165-1.876-.961-3.279-2.384-4.209-1.401-.932-3.809-1.812-7.227-2.64-3.416-.828-6.225-1.673-8.425-2.535-7.153-2.782-10.99-7.133-11.512-13.052-.259-2.947.361-5.616 1.859-8.006 1.52-2.417 3.787-4.384 6.803-5.902 3.013-1.542 6.469-2.484 10.369-2.828 3.802-.335 7.266.047 10.39 1.147 3.148 1.097 5.669 2.839 7.563 5.225 1.893 2.361 2.982 5.162 3.268 8.402l-12.718 1.12c-.191-2.168-1.005-3.79-2.443-4.866-1.412-1.079-3.246-1.518-5.498-1.32-2.276.201-4.036.871-5.279 2.012-1.219 1.114-1.761 2.45-1.623 4.009.119 1.364.956 2.542 2.509 3.535 1.549.968 4.205 1.887 7.968 2.759 3.76.847 6.875 1.849 9.345 3.006 6.008 2.809 9.269 7.124 9.782 12.946.409 4.652-1.013 8.46-4.267 11.422-3.254 2.963-7.921 4.712-14.001 5.247-4.287.378-8.243-.047-11.865-1.274-3.602-1.254-6.405-3.143-8.409-5.666-1.982-2.55-3.127-5.579-3.436-9.087l12.789-1.127c.252 2.85 1.164 4.893 2.736 6.129 1.596 1.21 4.041 1.669 7.336 1.379 2.107-.185 3.727-.782 4.859-1.79 1.153-1.035 1.656-2.38 1.511-4.036zm39.383-9.177l-4.724 6.234 1.237 14.03-12.754 1.123-4.685-53.198 12.754-1.124 2.065 23.457 3.837-7.15 9.938-17.702 15.768-1.39-15.802 25.105 20.489 28.094-15.115 1.332-13.008-18.811zm47.55 15.767l-12.718 1.121-4.685-53.199 12.717-1.12 4.686 53.198zm23.353-11.999l22.2-1.956.869 9.866-34.952 3.079-4.687-53.199 12.753-1.123 3.817 43.333zm42.934-3.782l22.2-1.956.868 9.865-34.951 3.079-4.686-53.198 12.752-1.124 3.817 43.334zm57.091-9.338c-.165-1.876-.959-3.279-2.383-4.209-1.402-.932-3.81-1.812-7.227-2.64-3.418-.828-6.225-1.673-8.425-2.535-7.153-2.782-10.991-7.132-11.512-13.051-.259-2.948.359-5.617 1.857-8.007 1.521-2.417 3.79-4.384 6.804-5.902 3.013-1.541 6.47-2.484 10.37-2.828 3.803-.335 7.266.047 10.39 1.147 3.147 1.097 5.668 2.839 7.563 5.225 1.893 2.362 2.982 5.162 3.267 8.402l-12.718 1.12c-.19-2.168-1.004-3.79-2.441-4.866-1.414-1.078-3.246-1.518-5.5-1.32-2.276.2-4.036.871-5.278 2.012-1.22 1.114-1.761 2.45-1.624 4.009.121 1.364.957 2.542 2.508 3.535 1.55.968 4.207 1.888 7.969 2.759 3.762.847 6.876 1.849 9.346 3.006 6.008 2.809 9.268 7.125 9.781 12.946.41 4.653-1.012 8.46-4.266 11.422-3.255 2.963-7.922 4.712-14.001 5.247-4.288.378-8.242-.047-11.866-1.274-3.6-1.254-6.404-3.142-8.408-5.666-1.982-2.55-3.128-5.579-3.437-9.087l12.79-1.126c.251 2.849 1.162 4.893 2.737 6.128 1.595 1.21 4.04 1.67 7.334 1.379 2.107-.185 3.727-.782 4.858-1.79 1.154-1.034 1.658-2.38 1.512-4.036z" fill="#FA1100"/><path d="M313.322 111.97L293.553 165h-10.047l19.768-53.03h10.048z" fill="#fff"/><path d="M42.525 155.399l.762 9.695-32.813 2.593-.762-9.694 32.813-2.594z" fill="#FA1100" stroke="#FA1100" stroke-width=".178"/><path d="M80.743 92.915l1.543-.135c2.41-.21 4.317.115 5.718.978 1.4.863 2.18 2.188 2.336 3.976.337 3.853-2.04 6.002-7.133 6.448l-5.388.471-1.618-18.49 11.686-1.022.283 3.237-7.765.68.338 3.857zm.716 8.183l1.315-.115c1.324-.116 2.275-.412 2.853-.887.578-.484.83-1.156.754-2.016-.074-.852-.44-1.436-1.096-1.752-.657-.325-1.745-.42-3.262-.288l-1 .087.436 4.971zM96.55 88.766l.49 5.59c.051.59.08 2.04.087 4.351l5.658-10.486 4.642-.406 1.237 14.139-3.731.327-.493-5.64c-.088-1.004-.128-2.428-.119-4.272l-5.635 10.458-4.63.405-1.236-14.14 3.73-.326zm18.928 3.824c1.459-.127 2.481-.336 3.068-.625.595-.29.87-.692.825-1.206-.04-.456-.294-.777-.76-.966-.467-.189-1.215-.238-2.243-.148-.65.057-1.38.202-2.193.434-.803.232-1.53.516-2.181.854l-1.374-2.595a15.787 15.787 0 012.851-1.065c.93-.25 1.976-.427 3.14-.53 1.762-.153 3.204.06 4.325.642 1.121.581 1.733 1.45 1.834 2.605.139 1.593-.71 2.713-2.548 3.358l.011.126c1.18.186 2.038.523 2.573 1.011.543.48.852 1.145.927 1.996a3.48 3.48 0 01-.635 2.363c-.498.714-1.258 1.299-2.28 1.754-1.022.455-2.246.744-3.671.869-2.361.207-4.199.074-5.514-.397l-.279-3.187c.754.274 1.57.47 2.447.589a11.58 11.58 0 002.542.07c1.257-.11 2.184-.33 2.784-.664.599-.34.875-.773.83-1.296-.051-.573-.416-.966-1.097-1.178-.682-.22-1.706-.271-3.072-.152l-1.493.13-.233-2.668 1.416-.124zm14.258-6.727l.476 5.438 5.388-.471-.476-5.438 3.857-.338 1.237 14.14-3.857.337-.51-5.83-5.388.471.511 5.83-3.858.338-1.237-14.14 3.857-.337zm19.365.804c-.818.071-1.436.389-1.854.952-.419.555-.62 1.312-.604 2.27l5.413-.473c-.101-.951-.413-1.663-.939-2.135-.526-.481-1.199-.686-2.016-.614zm1.586 11.866c-2.276.199-4.11-.274-5.502-1.418-1.391-1.144-2.188-2.867-2.389-5.169-.208-2.369.222-4.25 1.29-5.643 1.075-1.403 2.658-2.195 4.749-2.378 1.998-.175 3.604.258 4.816 1.299 1.213 1.04 1.907 2.564 2.083 4.57l.163 1.873-9.118.797c.138 1.093.537 1.92 1.198 2.483.661.562 1.54.795 2.636.7a10.642 10.642 0 002.392-.478 12.135 12.135 0 002.304-1.055l.261 2.985a8.901 8.901 0 01-2.097.935c-.753.236-1.681.402-2.786.499zm14.645-1.282c-4.401.385-6.813-1.838-7.236-6.669-.21-2.403.228-4.289 1.315-5.658 1.086-1.378 2.746-2.165 4.98-2.36 1.636-.143 3.131.049 4.485.576L168 86.224a18.14 18.14 0 00-1.746-.446 5.353 5.353 0 00-1.59-.103c-2.006.175-2.885 1.688-2.636 4.538.242 2.765 1.367 4.06 3.373 3.885a7.022 7.022 0 002.036-.472 7.652 7.652 0 001.816-1.101l.288 3.3a6.22 6.22 0 01-1.825.988c-.619.207-1.413.353-2.383.438z" fill="#fff"/><path d="M171.178 91.082l-.277-3.162 6.792-.594.276 3.162-6.791.594zm12.521-2.842c.122 1.4.442 2.438.96 3.115.527.676 1.309.969 2.346.878 1.028-.09 1.735-.509 2.12-1.256.392-.756.527-1.839.404-3.247-.123-1.4-.442-2.43-.959-3.089-.516-.66-1.293-.945-2.33-.854-1.029.09-1.74.505-2.134 1.245-.395.73-.531 1.8-.407 3.208zm9.776-.855c.201 2.302-.248 4.155-1.349 5.56-1.1 1.404-2.734 2.202-4.901 2.391-1.357.119-2.58-.072-3.669-.571-1.089-.508-1.961-1.294-2.615-2.358-.654-1.064-1.046-2.339-1.176-3.822-.202-2.31.244-4.16 1.338-5.546 1.093-1.387 2.732-2.176 4.915-2.368 1.358-.118 2.581.072 3.67.572 1.088.5 1.959 1.277 2.612 2.333.653 1.055 1.045 2.325 1.175 3.81zm2.206-1.582c-.284-3.246.116-5.762 1.2-7.547 1.092-1.795 2.93-3.03 5.513-3.707 1.254-.33 3.131-.775 5.63-1.334l.737 3.326c-1.085.222-3.004.662-5.759 1.32-1.048.26-1.818.583-2.311.966-.493.383-.843.898-1.05 1.545-.199.646-.282 1.49-.25 2.532l.19-.016c.386-.73.93-1.314 1.631-1.749a5.185 5.185 0 012.316-.763c1.745-.153 3.15.264 4.213 1.25 1.062.977 1.681 2.46 1.855 4.45.201 2.294-.259 4.131-1.378 5.512-1.112 1.372-2.747 2.152-4.906 2.34-2.158.19-3.912-.434-5.261-1.871-1.342-1.446-2.131-3.53-2.37-6.254zm7.585 4.982c1.83-.16 2.635-1.5 2.414-4.022-.215-2.453-1.148-3.608-2.801-3.463-.455.04-.901.185-1.338.436-.429.25-.817.564-1.166.943-.342.37-.586.735-.733 1.096.15 1.712.539 2.999 1.166 3.861.627.855 1.447 1.237 2.458 1.149zm17.916 1.58c-1.661.145-3.016-.343-4.066-1.466l-.202.017c.238 1.169.365 1.846.382 2.031l.501 5.73-3.857.337-1.782-20.362 3.136-.274.704 1.786.178-.015c.779-1.479 2.054-2.296 3.825-2.45 1.669-.147 3.033.384 4.09 1.591 1.057 1.208 1.686 2.958 1.887 5.251.132 1.51.023 2.84-.326 3.992-.342 1.152-.895 2.054-1.662 2.707-.767.654-1.703 1.029-2.808 1.125zm-2.15-11.472c-.953.083-1.623.44-2.01 1.068-.387.62-.53 1.605-.429 2.956l.036.417c.133 1.517.452 2.586.956 3.204.513.618 1.258.884 2.236.799 1.729-.152 2.468-1.652 2.219-4.502-.122-1.391-.428-2.414-.918-3.067-.483-.663-1.18-.955-2.09-.875zm19.733 9.679l-.914-1.857-.102.009c-.577.874-1.198 1.502-1.861 1.883-.656.372-1.536.606-2.64.703-1.358.118-2.462-.176-3.314-.883-.844-.708-1.329-1.778-1.454-3.212-.131-1.5.295-2.65 1.278-3.45.991-.81 2.542-1.344 4.652-1.605l2.446-.29-.054-.62c-.125-1.434-.922-2.086-2.389-1.958-1.129.099-2.427.557-3.894 1.373l-1.505-2.493c1.553-.994 3.32-1.578 5.301-1.751 1.897-.166 3.388.12 4.472.857 1.084.738 1.7 1.95 1.847 3.636l.825 9.422-2.694.236zm-1.712-6.451l-1.488.18c-1.118.132-1.935.408-2.451.827-.515.419-.74 1.007-.673 1.766.095 1.088.766 1.577 2.014 1.468.894-.078 1.584-.398 2.07-.958.495-.562.705-1.269.63-2.12l-.102-1.163zm11.144-3.142c1.459-.127 2.481-.336 3.067-.625.595-.29.87-.692.825-1.207-.04-.455-.293-.777-.76-.965-.467-.189-1.214-.238-2.243-.148-.649.057-1.38.201-2.192.434-.804.232-1.531.516-2.181.853l-1.374-2.594c.97-.467 1.92-.822 2.851-1.065.929-.251 1.976-.428 3.139-.53 1.762-.154 3.204.06 4.326.642 1.121.581 1.732 1.45 1.833 2.605.14 1.593-.71 2.712-2.548 3.358l.011.126c1.18.186 2.038.523 2.574 1.011.543.48.852 1.145.926 1.996a3.479 3.479 0 01-.634 2.362c-.498.715-1.258 1.3-2.281 1.755-1.022.454-2.245.744-3.67.869-2.361.206-4.199.074-5.515-.397l-.279-3.187c.755.274 1.571.47 2.448.588a11.58 11.58 0 002.542.071c1.256-.11 2.184-.331 2.784-.664.599-.341.875-.773.829-1.296-.05-.573-.416-.966-1.097-1.178-.682-.221-1.706-.272-3.072-.152l-1.492.13-.234-2.668 1.417-.124zm14.09.386c.123 1.4.443 2.438.961 3.114.526.677 1.308.97 2.345.879 1.029-.09 1.736-.51 2.12-1.257.393-.756.528-1.838.404-3.246-.122-1.4-.442-2.43-.958-3.09-.517-.66-1.293-.944-2.33-.853-1.029.09-1.74.504-2.134 1.244-.395.731-.531 1.8-.408 3.209zm9.776-.855c.202 2.301-.248 4.154-1.348 5.56-1.101 1.404-2.734 2.2-4.901 2.39-1.358.12-2.581-.071-3.67-.57-1.089-.508-1.961-1.295-2.614-2.359-.654-1.064-1.046-2.338-1.176-3.822-.202-2.31.243-4.159 1.337-5.546 1.094-1.387 2.732-2.176 4.916-2.367 1.357-.119 2.58.072 3.669.571 1.089.5 1.96 1.277 2.613 2.333.653 1.056 1.044 2.326 1.174 3.81zm15.947-4.76c.066.759-.117 1.429-.551 2.01-.425.573-1.095.976-2.009 1.209l.009.101c1.013.03 1.836.307 2.468.829.64.513.996 1.187 1.069 2.022.12 1.374-.328 2.471-1.343 3.29-1.017.812-2.528 1.305-4.535 1.48l-7.247.635-1.237-14.14 7.247-.634c1.939-.17 3.417.02 4.433.568 1.024.54 1.59 1.416 1.696 2.63zm-3.028 6.318c-.049-.556-.299-.938-.75-1.145-.453-.215-1.109-.285-1.969-.21l-3.06.268.292 3.339 3.137-.275c.817-.071 1.424-.277 1.819-.618.402-.35.579-.802.531-1.359zm-.853-5.673c-.076-.86-.796-1.23-2.162-1.11l-3.238.283.245 2.795 2.795-.245c.818-.071 1.427-.243 1.828-.516s.578-.675.532-1.207zm17.289 8.696l-.914-1.857-.101.008c-.578.875-1.199 1.503-1.862 1.884-.655.371-1.536.605-2.64.702-1.358.119-2.462-.175-3.314-.882-.844-.708-1.328-1.779-1.454-3.212-.131-1.5.295-2.651 1.279-3.45.991-.81 2.541-1.345 4.651-1.606l2.447-.29-.055-.62c-.125-1.433-.921-2.086-2.388-1.957-1.13.098-2.428.556-3.894 1.373l-1.506-2.494c1.553-.994 3.32-1.578 5.301-1.75 1.897-.167 3.388.12 4.472.857 1.084.738 1.7 1.95 1.847 3.636l.825 9.422-2.694.236zm-1.711-6.452l-1.488.181c-1.119.132-1.936.407-2.451.826-.516.42-.74 1.008-.674 1.767.095 1.088.767 1.577 2.015 1.468.893-.079 1.583-.398 2.069-.959.495-.561.705-1.268.63-2.12l-.101-1.163zm11.009-8.61l.476 5.439 5.387-.472-.476-5.438 3.858-.337 1.237 14.139-3.857.338-.51-5.83-5.388.47.51 5.83-3.857.338-1.238-14.139 3.858-.337zm17.023-1.489l.489 5.59c.051.59.081 2.04.087 4.35l5.659-10.485 4.641-.406 1.237 14.139-3.73.326-.494-5.64c-.088-1.004-.127-2.427-.119-4.272l-5.635 10.459-4.629.405-1.237-14.14 3.731-.326zm21.008.66c-.818.072-1.436.389-1.853.952-.419.555-.621 1.312-.605 2.27l5.413-.473c-.1-.951-.413-1.663-.938-2.135-.527-.481-1.199-.685-2.017-.614zm1.587 11.866c-2.277.2-4.111-.273-5.502-1.418-1.392-1.144-2.188-2.867-2.39-5.168-.207-2.37.223-4.25 1.291-5.644 1.075-1.403 2.658-2.195 4.749-2.378 1.998-.175 3.603.258 4.816 1.299 1.212 1.04 1.907 2.564 2.082 4.571l.164 1.872-9.119.798c.139 1.092.538 1.92 1.199 2.482.661.562 1.539.795 2.635.7a10.651 10.651 0 002.393-.477 12.122 12.122 0 002.303-1.056l.261 2.985a8.897 8.897 0 01-2.097.935c-.752.236-1.681.402-2.785.499zm24.215-5.216l-.737-8.422-2.896.253a36.9 36.9 0 01-.482 4.54 18.235 18.235 0 01-1.171 4.092l5.286-.463zm6.622 7.373l-3.465.303-.444-5.07-9.51.831.444 5.072-3.466.303-.69-7.892 1.188-.104c.7-1.327 1.24-2.971 1.62-4.933.381-1.962.573-4.184.577-6.665l9.991-.874.991 11.32 2.074-.182.69 7.891zm14.632-6.39l-3.858.338-.983-11.244-3.554.311c.007 3.186-.116 5.575-.367 7.169-.252 1.585-.672 2.756-1.26 3.513-.58.747-1.393 1.166-2.439 1.258-.893.078-1.639.008-2.236-.212l-.27-3.086c.428.132.849.18 1.262.145.48-.043.851-.423 1.111-1.143.268-.72.458-1.896.57-3.529.12-1.641.149-3.882.087-6.723l10.699-.936 1.238 14.139zm6.209-.543l-4.173.365 3.317-5.923c-.943-.3-1.683-.787-2.217-1.463-.527-.676-.833-1.499-.917-2.468-.12-1.366.296-2.482 1.249-3.347.96-.865 2.326-1.376 4.097-1.53l6.576-.576 1.238 14.14-3.858.337-.46-5.261-2.125.186-2.727 5.54zm-.207-9.795c.052.59.324 1.034.818 1.33.492.289 1.114.4 1.864.334l2.15-.188-.312-3.566-2.643.231c-.633.055-1.117.255-1.452.599-.327.334-.469.754-.425 1.26zm32.278-3.525c.066.76-.117 1.43-.551 2.011-.425.573-1.095.975-2.009 1.208l.008.101c1.014.03 1.837.307 2.469.83.639.512.996 1.186 1.069 2.021.12 1.374-.328 2.471-1.343 3.29-1.017.812-2.528 1.305-4.535 1.48l-7.247.635-1.237-14.14 7.247-.633c1.939-.17 3.417.02 4.433.567 1.024.54 1.59 1.416 1.696 2.63zm-3.028 6.319c-.049-.557-.299-.939-.75-1.145-.453-.216-1.109-.286-1.969-.21l-3.06.267.292 3.339 3.136-.275c.818-.071 1.425-.277 1.82-.617.402-.35.579-.803.531-1.36zm-.854-5.673c-.075-.86-.795-1.23-2.161-1.111l-3.238.283.245 2.795 2.795-.244c.817-.072 1.427-.244 1.828-.517s.578-.675.531-1.206zm14.075 9.231c-4.402.385-6.814-1.838-7.236-6.67-.211-2.402.228-4.288 1.314-5.658 1.086-1.377 2.746-2.164 4.98-2.36 1.636-.143 3.131.05 4.486.576l-.877 3.085a18.114 18.114 0 00-1.747-.446 5.345 5.345 0 00-1.589-.104c-2.007.176-2.886 1.689-2.636 4.538.242 2.766 1.366 4.06 3.373 3.885a7.033 7.033 0 002.036-.47 7.667 7.667 0 001.815-1.103l.289 3.301c-.59.451-1.198.78-1.825.988-.619.207-1.414.353-2.383.438zm12.401-13.09c-.818.072-1.436.39-1.854.953-.419.555-.62 1.311-.604 2.27l5.413-.474c-.1-.95-.413-1.663-.939-2.135-.526-.48-1.198-.685-2.016-.614zm1.586 11.866c-2.276.2-4.11-.273-5.502-1.417-1.391-1.144-2.188-2.867-2.389-5.169-.208-2.37.223-4.25 1.29-5.644 1.075-1.402 2.658-2.195 4.749-2.378 1.999-.175 3.604.258 4.816 1.3 1.213 1.04 1.907 2.564 2.083 4.57l.163 1.872-9.118.798c.138 1.092.538 1.92 1.198 2.482.661.563 1.54.796 2.636.7a10.637 10.637 0 002.392-.477 12.13 12.13 0 002.304-1.055l.261 2.984a8.897 8.897 0 01-2.097.936c-.753.236-1.681.402-2.786.498zm11.146-8.506l-5.159-6.52 4.376-.383 3.139 4.262 2.375-4.744 4.376-.383-3.998 7.32 5.451 6.8-4.389.384-3.396-4.583-2.561 5.105-4.376.382 4.162-7.64z" fill="#FA1100"/><path d="M160.637 59.592l5.742-.503-1.333-15.227 3.908-.342 1.618 18.49-23.258 2.035-1.618-18.49 3.921-.343 1.332 15.227 5.742-.502-1.333-15.227 3.946-.345 1.333 15.227zm22.331-12.914l4.25-.372-5.01 7.27 6.74 6.827-4.376.382-6.407-6.665.628 7.171-3.858.338-1.237-14.14 3.857-.337.601 6.867 4.812-7.34zm10.456 6.184c.122 1.4.443 2.438.961 3.114.526.676 1.308.97 2.345.878 1.029-.09 1.735-.508 2.12-1.256.393-.756.527-1.838.404-3.246-.122-1.4-.442-2.43-.958-3.09-.517-.66-1.294-.944-2.331-.854-1.028.09-1.74.505-2.134 1.245-.394.731-.53 1.8-.407 3.209zm9.776-.856c.202 2.302-.248 4.155-1.348 5.56-1.101 1.405-2.735 2.202-4.901 2.391-1.358.12-2.581-.071-3.67-.57-1.089-.509-1.961-1.295-2.615-2.359-.654-1.064-1.045-2.338-1.175-3.822-.202-2.31.243-4.159 1.337-5.546 1.093-1.387 2.732-2.176 4.916-2.367 1.357-.119 2.58.071 3.669.57 1.089.5 1.96 1.278 2.613 2.334s1.044 2.325 1.174 3.81zm16.468 5.709l-3.858.337-.984-11.243-3.553.311c.007 3.186-.116 5.575-.367 7.169-.252 1.585-.672 2.756-1.26 3.513-.58.747-1.393 1.166-2.439 1.258-.893.078-1.639.007-2.236-.212l-.27-3.086c.428.132.849.18 1.262.144.48-.042.851-.422 1.11-1.142.269-.72.459-1.896.571-3.529.12-1.641.149-3.883.087-6.723l10.699-.936 1.238 14.139zm13.039-1.14l-.915-1.858-.101.009c-.577.875-1.198 1.502-1.861 1.883-.656.372-1.536.606-2.64.703-1.358.119-2.463-.176-3.315-.883-.843-.708-1.328-1.778-1.453-3.211-.131-1.501.295-2.652 1.278-3.451.991-.809 2.542-1.344 4.651-1.605l2.447-.29-.054-.62c-.125-1.434-.922-2.086-2.389-1.958-1.13.1-2.428.557-3.894 1.373l-1.505-2.493c1.553-.994 3.32-1.578 5.301-1.751 1.897-.166 3.388.12 4.472.858 1.084.737 1.699 1.95 1.847 3.636l.825 9.422-2.694.235zm-1.712-6.452l-1.488.18c-1.118.133-1.935.408-2.451.827-.515.419-.74 1.008-.673 1.767.095 1.087.766 1.576 2.014 1.467.894-.078 1.584-.397 2.07-.958.495-.562.705-1.268.63-2.12l-.102-1.163zm17.738-9.198l.475 5.438 5.388-.472-.476-5.438 3.858-.337 1.237 14.139-3.857.337-.511-5.83-5.387.472.51 5.83-3.857.337-1.238-14.139 3.858-.337zm16.981 5.612c.123 1.4.443 2.438.961 3.115.526.676 1.308.968 2.345.878 1.029-.09 1.736-.509 2.12-1.256.393-.757.528-1.839.405-3.247-.123-1.4-.442-2.43-.959-3.09-.517-.66-1.293-.944-2.33-.853-1.029.09-1.74.505-2.134 1.244-.395.731-.531 1.801-.408 3.21zm9.776-.855c.202 2.302-.248 4.155-1.348 5.56-1.101 1.404-2.734 2.201-4.901 2.39-1.358.12-2.581-.07-3.669-.57-1.09-.508-1.962-1.294-2.615-2.358-.654-1.065-1.046-2.339-1.176-3.823-.202-2.31.244-4.159 1.337-5.546 1.094-1.387 2.732-2.176 4.916-2.367 1.357-.119 2.58.072 3.669.571 1.089.5 1.96 1.277 2.613 2.333.653 1.056 1.045 2.326 1.174 3.81zm15.947-4.76c.066.76-.117 1.43-.55 2.011-.426.572-1.096.975-2.01 1.208l.009.101c1.013.03 1.836.307 2.468.83.64.513.996 1.186 1.069 2.021.12 1.375-.327 2.471-1.343 3.291-1.017.811-2.528 1.304-4.535 1.48l-7.247.634-1.237-14.14 7.247-.633c1.939-.17 3.417.02 4.433.567 1.024.54 1.59 1.416 1.696 2.63zm-3.028 6.319c-.049-.557-.299-.939-.75-1.145-.452-.216-1.108-.286-1.968-.21l-3.061.267.292 3.339 3.137-.274c.817-.072 1.424-.278 1.819-.618.403-.35.58-.803.531-1.36zm-.853-5.673c-.076-.86-.796-1.23-2.162-1.111l-3.238.283.245 2.795 2.795-.244c.818-.072 1.427-.244 1.828-.517s.578-.675.532-1.206zm10.762 2.117c.123 1.4.443 2.438.961 3.114.526.676 1.308.97 2.345.878 1.029-.09 1.736-.508 2.12-1.256.393-.756.528-1.838.405-3.246-.123-1.4-.442-2.43-.959-3.09-.517-.66-1.293-.944-2.33-.854-1.029.09-1.74.505-2.134 1.245-.395.731-.531 1.8-.408 3.209zm9.776-.856c.202 2.302-.248 4.155-1.348 5.56-1.101 1.405-2.734 2.202-4.901 2.391-1.358.119-2.581-.071-3.669-.57-1.09-.509-1.962-1.295-2.615-2.359-.654-1.064-1.046-2.338-1.176-3.822-.202-2.31.244-4.159 1.337-5.546 1.094-1.387 2.732-2.176 4.916-2.367 1.357-.119 2.58.071 3.669.57 1.089.5 1.96 1.278 2.613 2.334s1.045 2.325 1.174 3.81zm12.334-8.177l.254 2.896-5.906.517.984 11.243-3.858.337-1.237-14.139 9.763-.854zm6.321 6.545c.122 1.4.442 2.438.96 3.115.527.676 1.309.969 2.346.878 1.028-.09 1.735-.509 2.12-1.256.393-.756.527-1.839.404-3.247-.123-1.4-.442-2.43-.959-3.09-.516-.66-1.293-.944-2.33-.853-1.029.09-1.74.505-2.134 1.245-.395.73-.531 1.8-.407 3.208zm9.776-.855c.201 2.302-.248 4.155-1.349 5.56-1.1 1.404-2.734 2.201-4.901 2.39-1.357.12-2.58-.07-3.669-.57-1.089-.508-1.961-1.294-2.615-2.358-.654-1.065-1.046-2.339-1.176-3.823-.202-2.31.244-4.158 1.338-5.545 1.093-1.388 2.732-2.177 4.915-2.368 1.358-.118 2.581.072 3.67.572 1.088.499 1.959 1.277 2.612 2.332.653 1.056 1.045 2.326 1.175 3.81zm20.997-8.935l.254 2.896-4.629.405.984 11.243-3.858.337-.984-11.243-4.641.406-.253-2.896 13.127-1.148zm6.374-.558l.489 5.59c.052.59.081 2.04.088 4.35l5.658-10.486 4.642-.405 1.237 14.139-3.731.326-.494-5.64c-.087-1.004-.127-2.428-.118-4.272l-5.636 10.459-4.628.405-1.238-14.14 3.731-.326zm27.786-2.43l1.237 14.138-3.87.339-.984-11.243-5.122.448.984 11.243-3.857.338-1.238-14.14 12.85-1.124zm14.263 12.999l-.914-1.857-.101.009c-.578.874-1.198 1.502-1.862 1.883-.655.371-1.535.606-2.64.702-1.357.12-2.462-.175-3.314-.882-.844-.708-1.328-1.779-1.453-3.212-.132-1.5.294-2.65 1.278-3.45.991-.81 2.541-1.344 4.651-1.605l2.447-.291-.054-.62c-.126-1.433-.922-2.085-2.389-1.957-1.13.099-2.428.556-3.894 1.373l-1.506-2.494c1.553-.994 3.32-1.577 5.302-1.75 1.897-.167 3.387.12 4.471.857 1.084.738 1.7 1.95 1.848 3.636l.824 9.422-2.694.236zm-1.711-6.452l-1.488.181c-1.118.132-1.935.408-2.451.827-.516.418-.74 1.007-.674 1.766.095 1.088.767 1.577 2.015 1.468.893-.078 1.583-.398 2.07-.959.494-.561.704-1.268.63-2.12l-.102-1.163z" fill="#fff"/></svg>