<svg width="457" height="91" viewBox="0 0 457 91" fill="none" xmlns="http://www.w3.org/2000/svg">
<path d="M32.0699 48.4343L14.8182 48.4447L14.8285 66.1234L4.13007 66.1297L4.10388 21.7505L33.7915 21.7326L33.7965 29.9927L14.8073 30.0042L14.8133 40.215L32.065 40.2046L32.0699 48.4343ZM51.1463 57.8712L69.7697 57.8599L69.7746 66.0897L40.4526 66.1073L40.4265 21.7286L51.1249 21.7221L51.1463 57.8712ZM110.521 21.6862L110.538 50.7338C110.539 54.0256 109.84 56.8809 108.44 59.3003C107.04 61.6987 105.029 63.5283 102.409 64.7899C99.7878 66.0516 96.6891 66.6831 93.1125 66.6851C87.7078 66.6885 83.45 65.2895 80.339 62.4866C77.2287 59.6846 75.6415 55.8451 75.5775 50.9683L75.5602 21.7073L86.3201 21.7009L86.3368 51.175C86.4613 56.0315 88.7188 58.4581 93.1083 58.4554C95.3231 58.4541 96.9991 57.8438 98.1361 56.6239C99.2732 55.4039 99.8413 53.4224 99.8396 50.6793L99.8221 21.6926L110.521 21.6862ZM146.95 47.237L130.125 47.2472L130.131 57.8237L150.004 57.8117L150.009 66.041L119.437 66.0599L119.411 21.6808L150.044 21.6622L150.049 29.9224L130.114 29.9344L130.12 39.2918L146.945 39.2817L146.95 47.237ZM193.617 66.015L182.979 66.0216L167.234 38.4159L167.251 66.0312L156.553 66.0376L156.526 21.6584L167.225 21.6518L182.938 49.2573L182.923 21.6423L193.59 21.636L193.617 66.015ZM236.471 29.8701L223.151 29.8781L223.173 65.9971L212.474 66.0036L212.452 29.8846L199.377 29.8925L199.372 21.6325L236.467 21.61L236.471 29.8701Z" fill="black"/>
<path d="M266.103 54.1754C266.102 52.6107 265.542 51.3919 264.425 50.5188C263.326 49.6456 261.385 48.7426 258.601 47.8096C255.817 46.8765 253.54 45.9736 251.772 45.101C246.019 42.2799 243.142 38.4005 243.139 33.4628C243.138 31.0041 243.848 28.8395 245.269 26.9692C246.71 25.0785 248.741 23.6143 251.362 22.5764C253.983 21.5181 256.929 20.9881 260.201 20.986C263.39 20.9841 266.246 21.5514 268.767 22.6878C271.307 23.8242 273.279 25.4486 274.682 27.561C276.086 29.6531 276.789 32.0505 276.791 34.7531L266.122 34.7595C266.121 32.951 265.561 31.5493 264.442 30.5542C263.345 29.5592 261.851 29.0623 259.962 29.0634C258.052 29.0646 256.538 29.4923 255.42 30.3463C254.324 31.1802 253.776 32.2473 253.777 33.5477C253.777 34.6857 254.388 35.7216 255.608 36.6557C256.827 37.5693 258.972 38.5231 262.04 39.5169C265.109 40.4904 267.63 41.5455 269.601 42.6822C274.399 45.4429 276.799 49.2514 276.801 54.1079C276.803 57.989 275.343 61.038 272.418 63.2547C269.493 65.4713 265.48 66.5812 260.379 66.5842C256.784 66.5865 253.521 65.9483 250.595 64.6699C247.688 63.3711 245.492 61.6046 244.008 59.3703C242.543 57.1157 241.81 54.5254 241.809 51.5993L252.538 51.5927C252.539 53.9702 253.15 55.7275 254.369 56.8648C255.61 57.9815 257.612 58.5391 260.375 58.5375C262.143 58.5364 263.535 58.1597 264.551 57.4072C265.586 56.6344 266.103 55.5571 266.103 54.1754ZM299.557 49.4307L295.171 54.2493L295.178 65.9536L284.479 65.96L284.453 21.581L295.152 21.5745L295.163 41.1428L298.879 35.5017L308.441 21.5666L321.669 21.5585L306.685 41.1967L321.696 65.9375L309.016 65.9452L299.557 49.4307ZM337.993 65.9277L327.325 65.9341L327.299 21.555L337.967 21.5486L337.993 65.9277ZM358.309 57.6858L376.932 57.6745L376.937 65.9042L347.616 65.9219L347.589 21.5428L358.287 21.5363L358.309 57.6858ZM394.326 57.664L412.95 57.6527L412.954 65.8823L383.633 65.9001L383.607 21.521L394.305 21.5145L394.326 57.664ZM442.534 54.0686C442.533 52.504 441.974 51.2851 440.856 50.412C439.757 49.5389 437.817 48.6358 435.032 47.7028C432.247 46.7697 429.972 45.8669 428.203 44.9942C422.451 42.1733 419.573 38.2938 419.57 33.3561C419.569 30.8973 420.279 28.7328 421.7 26.8624C423.142 24.9718 425.174 23.5075 427.794 22.4696C430.414 21.4114 433.36 20.8813 436.632 20.8794C439.823 20.8775 442.677 21.4446 445.198 22.581C447.739 23.7174 449.71 25.3418 451.114 27.4543C452.517 29.5464 453.22 31.9438 453.222 34.6464L442.553 34.6528C442.552 32.8444 441.992 31.4425 440.874 30.4476C439.776 29.4525 438.283 28.9556 436.392 28.9567C434.483 28.9579 432.969 29.3854 431.852 30.2396C430.755 31.0733 430.207 32.1405 430.208 33.4411C430.209 34.579 430.82 35.6149 432.039 36.5489C433.258 37.4626 435.403 38.4163 438.472 39.4101C441.541 40.3837 444.061 41.4388 446.033 42.5755C450.83 45.3362 453.229 49.1447 453.233 54.0012C453.235 57.8824 451.774 60.9312 448.849 63.1479C445.924 65.3645 441.911 66.4745 436.812 66.4776C433.214 66.4796 429.953 65.8417 427.026 64.5632C424.12 63.2645 421.924 61.4979 420.439 59.2636C418.975 57.0091 418.242 54.4186 418.24 51.4925L428.969 51.486C428.971 53.8634 429.581 55.6208 430.801 56.758C432.041 57.8748 434.043 58.4324 436.807 58.4308C438.574 58.4296 439.966 58.053 440.981 57.3005C442.017 56.5277 442.535 55.4504 442.534 54.0686Z" fill="#FA1100"/>
<path d="M32.2233 40.0932L32.1514 48.4475L4.58203 48.2103L4.65388 39.8561L32.2233 40.0932Z" fill="#FA1100" stroke="#FA1100" stroke-width="0.148627"/>
</svg>
