<svg width="307" height="47" viewBox="0 0 307 47" fill="none" xmlns="http://www.w3.org/2000/svg">
<path d="M19.6161 24.9218H8.80529V36H2.10105V8.1898H20.7048V13.366H8.80529V19.7646H19.6161V24.9218ZM31.5669 30.8429H43.2372V36H24.8626V8.1898H31.5669V30.8429ZM68.7875 8.1898V26.3925C68.7875 28.4553 68.3482 30.2444 67.4695 31.7597C66.5909 33.2623 65.3303 34.4083 63.6877 35.1978C62.045 35.9873 60.1031 36.382 57.862 36.382C54.4749 36.382 51.8072 35.5034 49.859 33.7462C47.9107 31.9889 46.9175 29.5823 46.8793 26.5262V8.1898H53.6217V26.6599C53.6981 29.7032 55.1116 31.2249 57.862 31.2249C59.25 31.2249 60.3005 30.8429 61.0136 30.0789C61.7267 29.3149 62.0832 28.0733 62.0832 26.3543V8.1898H68.7875ZM91.6063 24.215H81.0629V30.8429H93.5164V36H74.3587V8.1898H93.5546V13.366H81.0629V19.2298H91.6063V24.215ZM120.843 36H114.177L104.321 18.695V36H97.6169V8.1898H104.321L114.158 25.4948V8.1898H120.843V36ZM147.711 13.366H139.364V36H132.66V13.366H124.466V8.1898H147.711V13.366ZM153.836 38.3876H149.271L158.764 8.1898H163.348L153.836 38.3876Z" fill="white"/>
<path d="M181.392 28.6081C181.392 27.6277 181.042 26.8636 180.342 26.3161C179.654 25.7685 178.438 25.2019 176.693 24.6162C174.949 24.0304 173.523 23.4638 172.415 22.9162C168.811 21.1462 167.009 18.7141 167.009 15.6199C167.009 14.0791 167.455 12.723 168.346 11.5515C169.251 10.3672 170.524 9.45043 172.167 8.80101C173.809 8.13886 175.656 7.80779 177.706 7.80779C179.705 7.80779 181.494 8.16433 183.073 8.87741C184.665 9.5905 185.9 10.6092 186.778 11.9335C187.657 13.245 188.096 14.7476 188.096 16.4412H181.411C181.411 15.3079 181.061 14.4293 180.361 13.8053C179.673 13.1814 178.737 12.8694 177.553 12.8694C176.356 12.8694 175.407 13.1368 174.707 13.6716C174.019 14.1937 173.675 14.8622 173.675 15.6772C173.675 16.3902 174.057 17.0397 174.821 17.6254C175.586 18.1984 176.929 18.7969 178.852 19.4208C180.774 20.0321 182.353 20.6942 183.589 21.4073C186.594 23.1391 188.096 25.5266 188.096 28.5699C188.096 31.0021 187.179 32.9121 185.346 34.3001C183.512 35.688 180.997 36.382 177.801 36.382C175.547 36.382 173.504 35.9809 171.67 35.1787C169.849 34.3637 168.474 33.2559 167.544 31.8552C166.627 30.4418 166.169 28.8182 166.169 26.9846H172.892C172.892 28.4744 173.274 29.5759 174.038 30.289C174.815 30.9893 176.069 31.3395 177.801 31.3395C178.909 31.3395 179.781 31.1039 180.418 30.6328C181.067 30.1489 181.392 29.474 181.392 28.6081ZM202.358 25.6476L199.608 28.6654V36H192.903V8.1898H199.608V20.4523L201.938 16.9187L207.935 8.1898H216.225L206.828 20.4905L216.225 36H208.279L202.358 25.6476ZM226.438 36H219.753V8.1898H226.438V36ZM239.172 30.8429H250.842V36H232.467V8.1898H239.172V30.8429ZM261.742 30.8429H273.412V36H255.038V8.1898H261.742V30.8429ZM291.953 28.6081C291.953 27.6277 291.603 26.8636 290.902 26.3161C290.215 25.7685 288.999 25.2019 287.254 24.6162C285.51 24.0304 284.084 23.4638 282.976 22.9162C279.372 21.1462 277.57 18.7141 277.57 15.6199C277.57 14.0791 278.016 12.723 278.907 11.5515C279.811 10.3672 281.085 9.45043 282.727 8.80101C284.37 8.13886 286.216 7.80779 288.266 7.80779C290.266 7.80779 292.055 8.16433 293.634 8.87741C295.225 9.5905 296.461 10.6092 297.339 11.9335C298.218 13.245 298.657 14.7476 298.657 16.4412H291.972C291.972 15.3079 291.622 14.4293 290.921 13.8053C290.234 13.1814 289.298 12.8694 288.114 12.8694C286.917 12.8694 285.968 13.1368 285.268 13.6716C284.58 14.1937 284.236 14.8622 284.236 15.6772C284.236 16.3902 284.618 17.0397 285.382 17.6254C286.146 18.1984 287.49 18.7969 289.413 19.4208C291.335 20.0321 292.914 20.6942 294.149 21.4073C297.155 23.1391 298.657 25.5266 298.657 28.5699C298.657 31.0021 297.74 32.9121 295.907 34.3001C294.073 35.688 291.558 36.382 288.362 36.382C286.108 36.382 284.064 35.9809 282.231 35.1787C280.41 34.3637 279.035 33.2559 278.105 31.8552C277.188 30.4418 276.73 28.8182 276.73 26.9846H283.453C283.453 28.4744 283.835 29.5759 284.599 30.289C285.376 30.9893 286.63 31.3395 288.362 31.3395C289.47 31.3395 290.342 31.1039 290.979 30.6328C291.628 30.1489 291.953 29.474 291.953 28.6081Z" fill="#FA1100"/>
<path d="M19.6391 19.7993V24.9325H2.03955V19.7993H19.6391Z" fill="#FA1100" stroke="#FA1100" stroke-width="0.0931373"/>
</svg>
