<svg width="573" height="213" viewBox="0 0 573 213" fill="none" xmlns="http://www.w3.org/2000/svg">
<path d="M43.7582 165.097L23.1982 166.909L25.0564 188.006L12.3063 189.129L7.64138 136.168L43.0222 133.051L43.8905 142.908L21.2598 144.902L22.3332 157.088L42.8932 155.276L43.7582 165.097ZM67.4795 174.371L89.6742 172.415L90.5393 182.237L55.5943 185.315L50.9295 132.354L63.6796 131.231L67.4795 174.371ZM134.466 124.995L137.519 159.66C137.864 163.588 137.329 167.069 135.913 170.102C134.494 173.11 132.289 175.504 129.298 177.282C126.306 179.062 122.679 180.138 118.416 180.514C111.975 181.081 106.754 179.856 102.754 176.835C98.7545 173.815 96.4619 169.398 95.8766 163.585L92.8007 128.666L105.624 127.536L108.721 162.71C109.377 168.493 112.321 171.153 117.552 170.692C120.192 170.46 122.125 169.557 123.353 167.982C124.581 166.408 125.051 163.984 124.763 160.71L121.715 126.118L134.466 124.995ZM180.551 151.69L160.5 153.456L161.611 166.078L185.295 163.992L186.16 173.812L149.726 177.023L145.061 124.062L181.568 120.845L182.436 130.703L158.679 132.796L159.663 143.962L179.714 142.196L180.551 151.69ZM238.13 169.234L225.453 170.351L203.805 139.047L206.708 172.003L193.959 173.126L189.293 120.165L202.044 119.041L223.654 150.348L220.752 117.393L233.465 116.273L238.13 169.234ZM285.431 121.629L269.557 123.027L273.354 166.131L260.604 167.254L256.806 124.151L241.224 125.524L240.356 115.666L284.564 111.771L285.431 121.629Z" fill="white"/>
<path d="M346.08 147.382C345.915 145.506 345.119 144.103 343.696 143.173C342.295 142.241 339.887 141.361 336.469 140.533C333.053 139.705 330.244 138.86 328.044 137.998C320.891 135.216 317.054 130.865 316.532 124.946C316.273 121.999 316.893 119.33 318.391 116.94C319.911 114.523 322.178 112.556 325.194 111.038C328.207 109.496 331.663 108.554 335.563 108.21C339.365 107.875 342.829 108.257 345.953 109.357C349.101 110.454 351.622 112.196 353.516 114.582C355.409 116.943 356.498 119.744 356.784 122.984L344.066 124.104C343.875 121.936 343.061 120.314 341.623 119.238C340.211 118.159 338.377 117.72 336.125 117.918C333.849 118.119 332.089 118.789 330.846 119.93C329.627 121.044 329.085 122.38 329.223 123.939C329.342 125.303 330.179 126.481 331.732 127.474C333.281 128.442 335.937 129.361 339.7 130.233C343.46 131.08 346.575 132.082 349.045 133.239C355.053 136.048 358.314 140.363 358.827 146.185C359.236 150.837 357.814 154.645 354.56 157.607C351.306 160.57 346.639 162.319 340.559 162.854C336.272 163.232 332.316 162.807 328.694 161.58C325.092 160.326 322.289 158.437 320.285 155.914C318.303 153.364 317.158 150.335 316.849 146.827L329.638 145.7C329.89 148.55 330.802 150.593 332.374 151.829C333.97 153.039 336.415 153.498 339.71 153.208C341.817 153.023 343.437 152.426 344.569 151.418C345.722 150.383 346.225 149.038 346.08 147.382ZM385.463 138.205L380.739 144.439L381.976 158.469L369.222 159.592L364.537 106.394L377.291 105.27L379.356 128.727L383.193 121.577L393.131 103.875L408.899 102.485L393.097 127.59L413.586 155.684L398.471 157.016L385.463 138.205ZM433.013 153.972L420.295 155.093L415.61 101.894L428.327 100.774L433.013 153.972ZM456.366 141.973L478.566 140.017L479.435 149.883L444.483 152.962L439.796 99.7632L452.549 98.6397L456.366 141.973ZM499.3 138.191L521.5 136.235L522.368 146.1L487.417 149.179L482.731 95.9807L495.483 94.8571L499.3 138.191ZM556.391 128.853C556.226 126.977 555.432 125.574 554.008 124.644C552.606 123.712 550.198 122.832 546.781 122.004C543.363 121.176 540.556 120.331 538.356 119.469C531.203 116.687 527.365 112.337 526.844 106.418C526.585 103.47 527.203 100.801 528.701 98.411C530.222 95.9941 532.491 94.0269 535.505 92.5094C538.518 90.9675 541.975 90.0247 545.875 89.6812C549.678 89.3461 553.141 89.7283 556.265 90.8277C559.412 91.925 561.933 93.6667 563.828 96.0527C565.721 98.4145 566.81 101.215 567.095 104.455L554.377 105.575C554.187 103.407 553.373 101.785 551.936 100.709C550.522 99.6307 548.69 99.1908 546.436 99.3892C544.16 99.5898 542.4 100.26 541.158 101.401C539.938 102.515 539.397 103.851 539.534 105.41C539.655 106.774 540.491 107.952 542.042 108.945C543.592 109.913 546.249 110.833 550.011 111.704C553.773 112.551 556.887 113.553 559.357 114.71C565.365 117.519 568.625 121.835 569.138 127.656C569.548 132.309 568.126 136.116 564.872 139.078C561.617 142.041 556.95 143.79 550.871 144.325C546.583 144.703 542.629 144.278 539.005 143.051C535.405 141.797 532.601 139.909 530.597 137.385C528.615 134.835 527.469 131.806 527.16 128.298L539.95 127.172C540.201 130.021 541.112 132.065 542.687 133.3C544.282 134.51 546.727 134.97 550.021 134.679C552.128 134.494 553.748 133.897 554.879 132.889C556.033 131.855 556.537 130.509 556.391 128.853Z" fill="#FA1100"/>
<path d="M313.322 111.97L293.553 165L283.506 165L303.274 111.97L313.322 111.97Z" fill="white"/>
<path d="M42.5252 155.399L43.2872 165.094L10.4742 167.687L9.71216 157.993L42.5252 155.399Z" fill="#FA1100" stroke="#FA1100" stroke-width="0.177897"/>
<path d="M80.7425 92.915L82.2855 92.78C84.6968 92.5691 86.603 92.895 88.0038 93.758C89.4047 94.621 90.1834 95.9462 90.3398 97.7336C90.677 101.587 88.2993 103.736 83.2068 104.182L77.8192 104.653L76.2011 86.1631L87.8869 85.1407L88.1702 88.3783L80.405 89.0577L80.7425 92.915ZM81.4586 101.098L82.7739 100.983C84.0976 100.867 85.0488 100.571 85.6274 100.096C86.2052 99.6118 86.4565 98.9399 86.3813 98.0799C86.3068 97.2284 85.9413 96.6444 85.2849 96.328C84.6278 96.0032 83.5404 95.9072 82.0228 96.0399L81.0237 96.1273L81.4586 101.098ZM96.5514 88.7665L97.0406 94.3565C97.0923 94.9467 97.1215 96.3969 97.1282 98.7072L102.786 88.221L107.428 87.8149L108.665 101.954L104.934 102.281L104.441 96.6401C104.353 95.6368 104.313 94.213 104.322 92.3686L98.6867 102.827L94.0579 103.232L92.8206 89.0929L96.5514 88.7665ZM115.479 92.5904C116.938 92.4628 117.96 92.2544 118.547 91.9652C119.142 91.6752 119.417 91.2731 119.372 90.7588C119.332 90.3035 119.078 89.9816 118.612 89.793C118.145 89.6045 117.397 89.5552 116.369 89.6452C115.719 89.702 114.989 89.8467 114.176 90.0791C113.373 90.3109 112.646 90.5954 111.995 90.9326L110.621 88.3384C111.592 87.8712 112.542 87.5162 113.472 87.2734C114.402 87.0222 115.448 86.8456 116.612 86.7438C118.374 86.5897 119.816 86.8034 120.937 87.3849C122.058 87.9665 122.67 88.8348 122.771 89.9899C122.91 91.5834 122.061 92.7027 120.223 93.3478L120.234 93.4743C121.414 93.6599 122.272 93.9969 122.807 94.4853C123.35 94.9645 123.659 95.6299 123.734 96.4815C123.809 97.3414 123.598 98.1288 123.099 98.8436C122.601 99.5583 121.841 100.143 120.819 100.598C119.797 101.053 118.573 101.342 117.148 101.467C114.787 101.674 112.949 101.541 111.634 101.07L111.355 97.8831C112.109 98.1569 112.925 98.3531 113.802 98.4718C114.687 98.5898 115.535 98.6133 116.344 98.5425C117.601 98.4326 118.528 98.2112 119.128 97.8784C119.727 97.5372 120.003 97.1052 119.958 96.5824C119.907 96.0091 119.542 95.6163 118.861 95.404C118.179 95.1833 117.155 95.1327 115.789 95.2522L114.296 95.3828L114.063 92.7143L115.479 92.5904ZM129.737 85.8631L130.213 91.3013L135.601 90.83L135.125 85.3918L138.982 85.0543L140.219 99.1936L136.362 99.5311L135.852 93.7008L130.464 94.1722L130.975 100.002L127.117 100.34L125.88 86.2006L129.737 85.8631ZM149.102 86.6667C148.284 86.7383 147.666 87.0557 147.248 87.619C146.829 88.1739 146.628 88.9307 146.644 89.8893L152.057 89.4157C151.956 88.4645 151.644 87.7527 151.118 87.2805C150.592 86.7998 149.919 86.5952 149.102 86.6667ZM150.688 98.5326C148.412 98.7318 146.578 98.2593 145.186 97.1151C143.795 95.971 142.998 94.2481 142.797 91.9463C142.589 89.5771 143.019 87.6959 144.087 86.3026C145.162 84.9002 146.745 84.1075 148.836 83.9246C150.834 83.7497 152.44 84.1828 153.652 85.2236C154.865 86.2645 155.559 87.7882 155.735 89.7949L155.898 91.6666L146.78 92.4644C146.918 93.5568 147.317 94.3842 147.978 94.9465C148.639 95.5089 149.518 95.7422 150.614 95.6463C151.465 95.5718 152.263 95.4128 153.006 95.1693C153.75 94.9259 154.517 94.5741 155.31 94.114L155.571 97.0987C154.926 97.4949 154.227 97.8067 153.474 98.034C152.721 98.2698 151.793 98.436 150.688 98.5326ZM165.333 97.2513C160.932 97.6364 158.52 95.4133 158.097 90.5822C157.887 88.1793 158.325 86.2931 159.412 84.9236C160.498 83.5458 162.158 82.7591 164.392 82.5636C166.028 82.4205 167.523 82.6125 168.877 83.1397L168 86.224C167.372 86.0326 166.79 85.8839 166.254 85.7778C165.717 85.6634 165.187 85.629 164.664 85.6748C162.658 85.8503 161.779 87.363 162.028 90.2128C162.27 92.9782 163.395 94.2732 165.401 94.0976C166.143 94.0327 166.822 93.8757 167.437 93.6264C168.052 93.3687 168.657 93.0015 169.253 92.5246L169.541 95.8254C168.952 96.2763 168.344 96.6056 167.716 96.8134C167.097 97.0205 166.303 97.1665 165.333 97.2513Z" fill="white"/>
<path d="M171.178 91.0817L170.901 87.92L177.693 87.3258L177.969 90.4876L171.178 91.0817ZM183.699 88.2404C183.821 89.64 184.141 90.6782 184.659 91.355C185.186 92.0311 185.968 92.3238 187.005 92.2331C188.033 92.1431 188.74 91.7244 189.125 90.9771C189.517 90.2206 189.652 89.1384 189.529 87.7303C189.406 86.3307 189.087 85.3009 188.57 84.641C188.054 83.981 187.277 83.6964 186.24 83.7871C185.211 83.8771 184.5 84.2919 184.106 85.0316C183.711 85.7628 183.575 86.8324 183.699 88.2404ZM193.475 87.3851C193.676 89.6869 193.227 91.5401 192.126 92.9447C191.026 94.3493 189.392 95.1465 187.225 95.336C185.868 95.4548 184.645 95.2644 183.556 94.765C182.467 94.2571 181.595 93.471 180.941 92.4068C180.287 91.3425 179.895 90.0684 179.765 88.5845C179.563 86.2743 180.009 84.4257 181.103 83.0387C182.196 81.6516 183.835 80.8626 186.018 80.6715C187.376 80.5528 188.599 80.7431 189.688 81.2426C190.776 81.7421 191.647 82.5197 192.3 83.5755C192.953 84.6313 193.345 85.9012 193.475 87.3851ZM195.681 85.803C195.397 82.5569 195.797 80.0411 196.881 78.2556C197.973 76.4609 199.811 75.2254 202.394 74.5492C203.648 74.2186 205.525 73.774 208.024 73.2154L208.761 76.5408C207.676 76.7632 205.757 77.203 203.002 77.8603C201.954 78.1219 201.184 78.4442 200.691 78.8271C200.198 79.2101 199.848 79.725 199.641 80.3718C199.442 81.0178 199.359 81.862 199.391 82.9042L199.581 82.8876C199.967 82.1571 200.511 81.5743 201.212 81.1392C201.913 80.704 202.685 80.4496 203.528 80.3758C205.273 80.2231 206.678 80.6397 207.741 81.6257C208.803 82.6032 209.422 84.0868 209.596 86.0766C209.797 88.37 209.337 90.207 208.218 91.5879C207.106 92.9595 205.471 93.7398 203.312 93.9286C201.154 94.1174 199.4 93.4935 198.051 92.0568C196.709 90.6109 195.92 88.5263 195.681 85.803ZM203.266 90.7849C205.096 90.6248 205.901 89.2843 205.68 86.7633C205.465 84.3098 204.532 83.1553 202.879 83.2999C202.424 83.3398 201.978 83.485 201.541 83.7356C201.112 83.9855 200.724 84.2999 200.375 84.6787C200.033 85.0484 199.789 85.4139 199.642 85.7751C199.792 87.4866 200.181 88.7737 200.808 89.6363C201.435 90.4906 202.255 90.8734 203.266 90.7849ZM221.182 92.3652C219.521 92.5105 218.166 92.0216 217.116 90.8985L216.914 90.9162C217.152 92.0848 217.279 92.7619 217.296 92.9473L217.797 98.6764L213.94 99.0139L212.158 78.6523L215.294 78.3779L215.998 80.1641L216.176 80.1486C216.955 78.6701 218.23 77.8534 220.001 77.6985C221.67 77.5524 223.034 78.0831 224.091 79.2904C225.148 80.4978 225.777 82.2482 225.978 84.5415C226.11 86.0507 226.001 87.3813 225.652 88.5333C225.31 89.6846 224.757 90.5869 223.99 91.2402C223.223 91.8936 222.287 92.2685 221.182 92.3652ZM219.032 80.8928C218.079 80.9761 217.409 81.3321 217.022 81.9606C216.635 82.5807 216.492 83.566 216.593 84.9165L216.629 85.3339C216.762 86.8515 217.081 87.9196 217.585 88.5381C218.098 89.156 218.843 89.4221 219.821 89.3365C221.55 89.1853 222.289 87.6848 222.04 84.835C221.918 83.4438 221.612 82.4214 221.122 81.7676C220.639 81.1047 219.942 80.8131 219.032 80.8928ZM238.765 90.572L237.851 88.715L237.749 88.7238C237.172 89.5984 236.551 90.2262 235.888 90.6071C235.232 90.9788 234.352 91.213 233.248 91.3096C231.89 91.4283 230.786 91.1342 229.934 90.4271C229.09 89.7193 228.605 88.6487 228.48 87.2154C228.349 85.7146 228.775 84.5644 229.758 83.7647C230.749 82.9558 232.3 82.4209 234.41 82.1598L236.856 81.8693L236.802 81.2496C236.677 79.8163 235.88 79.1638 234.413 79.2921C233.284 79.391 231.986 79.8486 230.519 80.6651L229.014 78.1716C230.567 77.1776 232.334 76.594 234.315 76.4206C236.212 76.2547 237.703 76.5406 238.787 77.2783C239.871 78.0161 240.487 79.2281 240.634 80.9143L241.459 90.3363L238.765 90.572ZM237.053 84.1205L235.565 84.3016C234.447 84.4334 233.63 84.7088 233.114 85.1277C232.599 85.5467 232.374 86.1355 232.441 86.8944C232.536 87.982 233.207 88.4712 234.455 88.3621C235.349 88.2839 236.039 87.9644 236.525 87.4036C237.02 86.8421 237.23 86.1355 237.155 85.284L237.053 84.1205ZM248.197 80.9791C249.656 80.8515 250.678 80.6431 251.264 80.3539C251.859 80.0639 252.134 79.6618 252.089 79.1475C252.049 78.6922 251.796 78.3703 251.329 78.1818C250.862 77.9932 250.115 77.9439 249.086 78.0339C248.437 78.0907 247.706 78.2354 246.894 78.4678C246.09 78.6996 245.363 78.9841 244.713 79.3213L243.339 76.7271C244.309 76.2599 245.259 75.9049 246.19 75.6621C247.119 75.4109 248.166 75.2343 249.329 75.1326C251.091 74.9784 252.533 75.1921 253.655 75.7736C254.776 76.3552 255.387 77.2235 255.488 78.3786C255.628 79.9721 254.778 81.0914 252.94 81.7365L252.951 81.863C254.131 82.0486 254.989 82.3856 255.525 82.874C256.068 83.3532 256.377 84.0186 256.451 84.8702C256.527 85.7302 256.315 86.5175 255.817 87.2323C255.319 87.9471 254.559 88.5318 253.536 88.9866C252.514 89.4413 251.291 89.731 249.866 89.8557C247.505 90.0622 245.667 89.9299 244.351 89.4588L244.072 86.2718C244.827 86.5456 245.643 86.7418 246.52 86.8605C247.405 86.9785 248.253 87.002 249.062 86.9312C250.318 86.8213 251.246 86.5999 251.846 86.2671C252.445 85.9259 252.721 85.4939 252.675 84.9711C252.625 84.3978 252.259 84.005 251.578 83.7927C250.896 83.572 249.872 83.5215 248.506 83.6409L247.014 83.7715L246.78 81.103L248.197 80.9791ZM262.287 81.3648C262.41 82.7644 262.73 83.8026 263.248 84.4794C263.774 85.1555 264.556 85.4482 265.593 85.3575C266.622 85.2675 267.329 84.8488 267.713 84.1015C268.106 83.345 268.241 82.2628 268.117 80.8547C267.995 79.4551 267.675 78.4253 267.159 77.7654C266.642 77.1054 265.866 76.8208 264.829 76.9115C263.8 77.0015 263.089 77.4163 262.695 78.156C262.3 78.8872 262.164 79.9568 262.287 81.3648ZM272.063 80.5095C272.265 82.8113 271.815 84.6645 270.715 86.0691C269.614 87.4737 267.981 88.2708 265.814 88.4604C264.456 88.5792 263.233 88.3888 262.144 87.8894C261.055 87.3815 260.183 86.5954 259.53 85.5312C258.876 84.4669 258.484 83.1928 258.354 81.7089C258.152 79.3987 258.597 77.5501 259.691 76.1631C260.785 74.776 262.423 73.987 264.607 73.7959C265.964 73.6772 267.187 73.8675 268.276 74.367C269.365 74.8665 270.236 75.6441 270.889 76.6999C271.542 77.7557 271.933 79.0256 272.063 80.5095ZM288.01 75.75C288.076 76.5088 287.893 77.179 287.459 77.7607C287.034 78.3332 286.364 78.7359 285.45 78.9688L285.459 79.07C286.472 79.1002 287.295 79.3766 287.927 79.899C288.567 80.4123 288.923 81.0862 288.996 81.9209C289.116 83.2952 288.668 84.3921 287.653 85.2117C286.636 86.0227 285.125 86.5161 283.118 86.6916L275.871 87.3256L274.634 73.1863L281.881 72.5523C283.82 72.3826 285.298 72.5719 286.314 73.1202C287.338 73.6593 287.904 74.5359 288.01 75.75ZM284.982 82.0682C284.933 81.5118 284.683 81.1301 284.232 80.9232C283.779 80.7079 283.123 80.6378 282.263 80.7131L279.203 80.9808L279.495 84.3196L282.632 84.0452C283.449 83.9737 284.056 83.7677 284.451 83.4273C284.853 83.0777 285.03 82.6247 284.982 82.0682ZM284.129 76.3954C284.053 75.5354 283.333 75.1652 281.967 75.2847L278.729 75.5679L278.974 78.3629L281.769 78.1184C282.587 78.0468 283.196 77.8746 283.597 77.6016C283.998 77.3287 284.175 76.9266 284.129 76.3954ZM301.418 85.0906L300.504 83.2335L300.403 83.2424C299.825 84.117 299.204 84.7447 298.541 85.1256C297.886 85.4973 297.005 85.7315 295.901 85.8281C294.543 85.9469 293.439 85.6527 292.587 84.9457C291.743 84.2378 291.259 83.1673 291.133 81.7339C291.002 80.2332 291.428 79.0829 292.412 78.2832C293.403 77.4744 294.953 76.9394 297.063 76.6784L299.51 76.3878L299.455 75.7681C299.33 74.3348 298.534 73.6823 297.067 73.8107C295.937 73.9095 294.639 74.3672 293.173 75.1836L291.667 72.6901C293.22 71.6962 294.987 71.1125 296.968 70.9392C298.865 70.7732 300.356 71.0591 301.44 71.7969C302.524 72.5346 303.14 73.7466 303.287 75.4329L304.112 84.8549L301.418 85.0906ZM299.707 78.639L298.219 78.8202C297.1 78.952 296.283 79.2274 295.768 79.6463C295.252 80.0652 295.028 80.6541 295.094 81.4129C295.189 82.5006 295.861 82.9898 297.109 82.8806C298.002 82.8024 298.692 82.4829 299.178 81.9222C299.673 81.3606 299.883 80.6541 299.808 79.8025L299.707 78.639ZM310.716 70.0296L311.192 75.4678L316.579 74.9964L316.103 69.5582L319.961 69.2207L321.198 83.36L317.341 83.6975L316.831 77.8673L311.443 78.3386L311.953 84.1689L308.096 84.5063L306.858 70.367L310.716 70.0296ZM327.739 68.5402L328.228 74.1302C328.279 74.7204 328.309 76.1706 328.315 78.4809L333.974 67.9948L338.615 67.5887L339.852 81.728L336.122 82.0544L335.628 76.4139C335.54 75.4105 335.501 73.9867 335.509 72.1423L329.874 82.601L325.245 83.006L324.008 68.8667L327.739 68.5402ZM348.747 69.2C347.929 69.2716 347.311 69.589 346.894 70.1523C346.475 70.7072 346.273 71.464 346.289 72.4226L351.702 71.949C351.602 70.9978 351.289 70.286 350.764 69.8137C350.237 69.333 349.565 69.1285 348.747 69.2ZM350.334 81.0659C348.057 81.2651 346.223 80.7926 344.832 79.6484C343.44 78.5043 342.644 76.7813 342.442 74.4796C342.235 72.1104 342.665 70.2291 343.733 68.8359C344.808 67.4335 346.391 66.6408 348.482 66.4578C350.48 66.283 352.085 66.716 353.298 67.7569C354.51 68.7977 355.205 70.3215 355.38 72.3282L355.544 74.1999L346.425 74.9977C346.564 76.0901 346.963 76.9174 347.624 77.4798C348.285 78.0422 349.163 78.2754 350.259 78.1795C351.111 78.105 351.908 77.9461 352.652 77.7026C353.395 77.4592 354.163 77.1074 354.955 76.6472L355.216 79.6319C354.571 80.0282 353.872 80.34 353.119 80.5673C352.367 80.8031 351.438 80.9693 350.334 81.0659ZM374.549 75.8505L373.812 67.4277L370.916 67.681C370.842 69.2677 370.682 70.7813 370.434 72.2218C370.195 73.6615 369.804 75.0253 369.263 76.3131L374.549 75.8505ZM381.171 83.2233L377.706 83.5265L377.262 78.4551L367.752 79.2871L368.196 84.3586L364.73 84.6617L364.04 76.77L365.228 76.666C365.928 75.3389 366.468 73.6945 366.848 71.7326C367.229 69.7708 367.421 67.5493 367.425 65.0681L377.416 64.194L378.407 75.5131L380.481 75.3316L381.171 83.2233ZM395.803 76.833L391.945 77.1705L390.962 65.9273L387.408 66.2382C387.415 69.4236 387.292 71.8131 387.041 73.4068C386.789 74.9921 386.369 76.1631 385.781 76.9197C385.201 77.6671 384.388 78.0865 383.342 78.178C382.449 78.2562 381.703 78.1855 381.106 77.9658L380.836 74.88C381.264 75.0124 381.685 75.0606 382.098 75.0245C382.578 74.9824 382.949 74.6017 383.209 73.8823C383.477 73.1622 383.667 71.9858 383.779 70.3533C383.899 68.7117 383.928 66.4705 383.866 63.6297L394.565 62.6937L395.803 76.833ZM402.012 76.2897L397.839 76.6548L401.156 70.7318C400.213 70.4321 399.473 69.9445 398.939 69.2692C398.412 68.5931 398.106 67.7702 398.022 66.8006C397.902 65.4348 398.318 64.3194 399.271 63.4544C400.231 62.5888 401.597 62.0785 403.368 61.9236L409.944 61.3482L411.182 75.4875L407.324 75.825L406.864 70.5638L404.739 70.7497L402.012 76.2897ZM401.805 66.4951C401.857 67.0853 402.129 67.5287 402.623 67.8254C403.115 68.1137 403.737 68.225 404.487 68.1593L406.637 67.9712L406.325 64.4048L403.682 64.636C403.049 64.6913 402.565 64.8908 402.23 65.2345C401.903 65.569 401.761 65.9892 401.805 66.4951ZM434.083 62.9703C434.149 63.7291 433.966 64.3993 433.532 64.981C433.107 65.5535 432.437 65.9562 431.523 66.1891L431.531 66.2902C432.545 66.3205 433.368 66.5968 434 67.1193C434.639 67.6325 434.996 68.3065 435.069 69.1412C435.189 70.5155 434.741 71.6124 433.726 72.4319C432.709 73.243 431.198 73.7363 429.191 73.9119L421.944 74.5459L420.707 60.4066L427.954 59.7726C429.893 59.6029 431.371 59.7922 432.387 60.3405C433.411 60.8796 433.977 61.7562 434.083 62.9703ZM431.055 69.2885C431.006 68.732 430.756 68.3504 430.305 68.1435C429.852 67.9282 429.196 67.8581 428.336 67.9334L425.276 68.2011L425.568 71.5399L428.704 71.2655C429.522 71.194 430.129 70.988 430.524 70.6476C430.926 70.298 431.103 69.845 431.055 69.2885ZM430.201 63.6157C430.126 62.7557 429.406 62.3855 428.04 62.505L424.802 62.7882L425.047 65.5832L427.842 65.3387C428.659 65.2671 429.269 65.0949 429.67 64.8219C430.071 64.5489 430.248 64.1469 430.201 63.6157ZM444.276 72.847C439.874 73.2321 437.462 71.009 437.04 66.1779C436.829 63.775 437.268 61.8888 438.354 60.5193C439.44 59.1415 441.1 58.3548 443.334 58.1593C444.97 58.0162 446.465 58.2082 447.82 58.7354L446.943 61.8197C446.314 61.6283 445.732 61.4796 445.196 61.3736C444.659 61.2591 444.129 61.2247 443.607 61.2705C441.6 61.446 440.721 62.9587 440.971 65.8085C441.213 68.574 442.337 69.8689 444.344 69.6934C445.086 69.6284 445.764 69.4714 446.38 69.2221C446.994 68.9644 447.599 68.5972 448.195 68.1203L448.484 71.4211C447.894 71.872 447.286 72.2013 446.659 72.4092C446.04 72.6162 445.245 72.7622 444.276 72.847ZM456.677 59.7574C455.859 59.829 455.241 60.1464 454.823 60.7097C454.404 61.2646 454.203 62.0213 454.219 62.98L459.632 62.5064C459.532 61.5551 459.219 60.8434 458.693 60.3711C458.167 59.8904 457.495 59.6859 456.677 59.7574ZM458.263 71.6233C455.987 71.8224 454.153 71.35 452.761 70.2058C451.37 69.0617 450.573 67.3387 450.372 65.037C450.164 62.6678 450.595 60.7865 451.662 59.3933C452.737 57.9908 454.32 57.1982 456.411 57.0152C458.41 56.8404 460.015 57.2734 461.227 58.3143C462.44 59.3551 463.134 60.8789 463.31 62.8855L463.473 64.7573L454.355 65.5551C454.493 66.6474 454.893 67.4748 455.553 68.0372C456.214 68.5996 457.093 68.8328 458.189 68.7369C459.041 68.6624 459.838 68.5034 460.581 68.26C461.325 68.0166 462.092 67.6648 462.885 67.2046L463.146 70.1893C462.501 70.5856 461.802 70.8974 461.049 71.1247C460.296 71.3605 459.368 71.5266 458.263 71.6233ZM469.409 63.1166L464.25 56.597L468.626 56.2142L471.765 60.4764L474.14 55.7318L478.516 55.3489L474.518 62.6696L479.969 69.4694L475.58 69.8534L472.184 65.2696L469.623 70.3745L465.247 70.7574L469.409 63.1166Z" fill="#FA1100"/>
<path d="M160.637 59.5916L166.379 59.0892L165.046 43.8623L168.954 43.5204L170.572 62.0103L147.314 64.0451L145.696 45.5552L149.617 45.2122L150.949 60.4391L156.691 59.9368L155.358 44.7098L159.304 44.3646L160.637 59.5916ZM182.968 46.6782L187.218 46.3064L182.208 53.5753L188.948 60.4026L184.572 60.7854L178.165 54.1202L178.793 61.2911L174.935 61.6285L173.698 47.4892L177.555 47.1517L178.156 54.019L182.968 46.6782ZM193.424 52.8617C193.546 54.2613 193.867 55.2995 194.385 55.9763C194.911 56.6524 195.693 56.9451 196.73 56.8544C197.759 56.7644 198.465 56.3457 198.85 55.5984C199.243 54.8419 199.377 53.7596 199.254 52.3516C199.132 50.952 198.812 49.9222 198.296 49.2623C197.779 48.6023 197.002 48.3177 195.965 48.4084C194.937 48.4984 194.225 48.9132 193.831 49.6529C193.437 50.3841 193.301 51.4537 193.424 52.8617ZM203.2 52.0064C203.402 54.3081 202.952 56.1613 201.852 57.566C200.751 58.9706 199.117 59.7677 196.951 59.9573C195.593 60.0761 194.37 59.8857 193.281 59.3863C192.192 58.8784 191.32 58.0923 190.666 57.0281C190.012 55.9638 189.621 54.6897 189.491 53.2058C189.289 50.8956 189.734 49.047 190.828 47.66C191.921 46.2729 193.56 45.4839 195.744 45.2928C197.101 45.1741 198.324 45.3644 199.413 45.8639C200.502 46.3633 201.373 47.141 202.026 48.1968C202.679 49.2526 203.07 50.5225 203.2 52.0064ZM219.668 57.7149L215.81 58.0524L214.826 46.8093L211.273 47.1202C211.28 50.3055 211.157 52.6951 210.906 54.2888C210.654 55.8741 210.234 57.045 209.646 57.8016C209.066 58.5491 208.253 58.9685 207.207 59.06C206.314 59.1382 205.568 59.0674 204.971 58.8478L204.701 55.7619C205.129 55.8944 205.55 55.9426 205.963 55.9064C206.443 55.8644 206.814 55.4837 207.073 54.7643C207.342 54.0441 207.532 52.8678 207.644 51.2353C207.764 49.5936 207.793 47.3524 207.731 44.5117L218.43 43.5756L219.668 57.7149ZM232.707 56.5742L231.792 54.7171L231.691 54.726C231.114 55.6006 230.493 56.2284 229.83 56.6092C229.174 56.9809 228.294 57.2151 227.19 57.3118C225.832 57.4305 224.727 57.1364 223.875 56.4293C223.032 55.7215 222.547 54.6509 222.422 53.2176C222.291 51.7168 222.717 50.5665 223.7 49.7668C224.691 48.958 226.242 48.423 228.351 48.162L230.798 47.8715L230.744 47.2518C230.619 45.8184 229.822 45.166 228.355 45.2943C227.225 45.3931 225.927 45.8508 224.461 46.6672L222.956 44.1737C224.509 43.1798 226.276 42.5962 228.257 42.4228C230.154 42.2568 231.645 42.5427 232.729 43.2805C233.813 44.0182 234.428 45.2302 234.576 46.9165L235.401 56.3385L232.707 56.5742ZM230.995 50.1226L229.507 50.3038C228.389 50.4356 227.572 50.711 227.056 51.1299C226.541 51.5488 226.316 52.1377 226.383 52.8965C226.478 53.9842 227.149 54.4734 228.397 54.3642C229.291 54.286 229.981 53.9666 230.467 53.4058C230.962 52.8443 231.172 52.1377 231.097 51.2861L230.995 50.1226ZM248.733 40.9245L249.208 46.3627L254.596 45.8914L254.12 40.4532L257.978 40.1157L259.215 54.255L255.358 54.5925L254.847 48.7622L249.46 49.2336L249.97 55.0638L246.113 55.4013L244.875 41.262L248.733 40.9245ZM265.714 46.5371C265.837 47.9367 266.157 48.9749 266.675 49.6518C267.201 50.3279 267.983 50.6205 269.02 50.5298C270.049 50.4398 270.756 50.0212 271.14 49.2738C271.533 48.5173 271.668 47.4351 271.545 46.027C271.422 44.6274 271.103 43.5977 270.586 42.9377C270.069 42.2777 269.293 41.9931 268.256 42.0838C267.227 42.1738 266.516 42.5886 266.122 43.3283C265.727 44.0595 265.591 45.1291 265.714 46.5371ZM275.49 45.6818C275.692 47.9836 275.242 49.8368 274.142 51.2414C273.041 52.6461 271.408 53.4432 269.241 53.6327C267.883 53.7515 266.66 53.5612 265.572 53.0617C264.482 52.5538 263.61 51.7677 262.957 50.7035C262.303 49.6392 261.911 48.3651 261.781 46.8812C261.579 44.5711 262.025 42.7224 263.118 41.3354C264.212 39.9484 265.85 39.1593 268.034 38.9683C269.391 38.8495 270.614 39.0398 271.703 39.5393C272.792 40.0388 273.663 40.8164 274.316 41.8722C274.969 42.928 275.361 44.1979 275.49 45.6818ZM291.437 40.9223C291.503 41.6811 291.32 42.3514 290.887 42.933C290.461 43.5055 289.791 43.9082 288.877 44.1411L288.886 44.2423C289.899 44.2725 290.722 44.5489 291.354 45.0713C291.994 45.5846 292.35 46.2585 292.423 47.0933C292.543 48.4676 292.096 49.5645 291.08 50.384C290.063 51.1951 288.552 51.6884 286.545 51.8639L279.298 52.4979L278.061 38.3586L285.308 37.7246C287.247 37.555 288.725 37.7443 289.741 38.2925C290.765 38.8316 291.331 39.7082 291.437 40.9223ZM288.409 47.2405C288.36 46.6841 288.11 46.3024 287.659 46.0955C287.207 45.8802 286.551 45.8102 285.691 45.8854L282.63 46.1532L282.922 49.492L286.059 49.2176C286.876 49.146 287.483 48.94 287.878 48.5996C288.281 48.25 288.458 47.797 288.409 47.2405ZM287.556 41.5677C287.48 40.7077 286.76 40.3375 285.394 40.457L282.156 40.7402L282.401 43.5352L285.196 43.2907C286.014 43.2192 286.623 43.0469 287.024 42.7739C287.425 42.501 287.602 42.0989 287.556 41.5677ZM298.318 43.6846C298.441 45.0842 298.761 46.1225 299.279 46.7993C299.805 47.4754 300.587 47.7681 301.624 47.6773C302.653 47.5873 303.36 47.1687 303.744 46.4213C304.137 45.6649 304.272 44.5826 304.149 43.1746C304.026 41.775 303.707 40.7452 303.19 40.0852C302.673 39.4252 301.897 39.1406 300.86 39.2314C299.831 39.3214 299.12 39.7362 298.726 40.4758C298.331 41.207 298.195 42.2766 298.318 43.6846ZM308.094 42.8293C308.296 45.1311 307.846 46.9843 306.746 48.3889C305.645 49.7936 304.012 50.5907 301.845 50.7803C300.487 50.899 299.264 50.7087 298.176 50.2092C297.086 49.7013 296.214 48.9152 295.561 47.851C294.907 46.7867 294.515 45.5127 294.385 44.0288C294.183 41.7186 294.629 39.87 295.722 38.4829C296.816 37.0959 298.454 36.3068 300.638 36.1158C301.995 35.997 303.218 36.1874 304.307 36.6868C305.396 37.1863 306.267 37.9639 306.92 39.0197C307.573 40.0756 307.965 41.3454 308.094 42.8293ZM320.428 34.652L320.682 37.5481L314.776 38.0648L315.76 49.308L311.902 49.6455L310.665 35.5061L320.428 34.652ZM326.749 41.1973C326.871 42.5969 327.191 43.6351 327.709 44.3119C328.236 44.988 329.018 45.2807 330.055 45.19C331.083 45.1 331.79 44.6813 332.175 43.934C332.568 43.1775 332.702 42.0952 332.579 40.6872C332.456 39.2876 332.137 38.2578 331.62 37.5979C331.104 36.9379 330.327 36.6533 329.29 36.744C328.261 36.834 327.55 37.2488 327.156 37.9885C326.761 38.7197 326.625 39.7893 326.749 41.1973ZM336.525 40.342C336.726 42.6437 336.277 44.4969 335.176 45.9016C334.076 47.3062 332.442 48.1033 330.275 48.2929C328.918 48.4117 327.695 48.2213 326.606 47.7219C325.517 47.214 324.645 46.4279 323.991 45.3637C323.337 44.2994 322.945 43.0253 322.815 41.5414C322.613 39.2312 323.059 37.3826 324.153 35.9956C325.246 34.6085 326.885 33.8195 329.068 33.6284C330.426 33.5097 331.649 33.7 332.738 34.1995C333.826 34.6989 334.697 35.4766 335.35 36.5324C336.003 37.5882 336.395 38.8581 336.525 40.342ZM357.522 31.4067L357.776 34.3028L353.147 34.7078L354.131 45.951L350.273 46.2884L349.289 35.0453L344.648 35.4513L344.395 32.5552L357.522 31.4067ZM363.896 30.849L364.385 36.439C364.437 37.0292 364.466 38.4794 364.473 40.7897L370.131 30.3035L374.773 29.8975L376.01 44.0368L372.279 44.3632L371.785 38.7226C371.698 37.7193 371.658 36.2955 371.667 34.4511L366.031 44.9098L361.403 45.3147L360.165 31.1754L363.896 30.849ZM391.682 28.4181L392.919 42.5574L389.049 42.896L388.065 31.6528L382.943 32.101L383.927 43.3441L380.07 43.6816L378.832 29.5423L391.682 28.4181ZM405.945 41.4178L405.031 39.5607L404.93 39.5696C404.352 40.4442 403.732 41.0719 403.068 41.4528C402.413 41.8245 401.533 42.0587 400.428 42.1553C399.071 42.2741 397.966 41.9799 397.114 41.2729C396.27 40.565 395.786 39.4945 395.661 38.0611C395.529 36.5604 395.955 35.4101 396.939 34.6104C397.93 33.8016 399.48 33.2666 401.59 33.0056L404.037 32.715L403.983 32.0953C403.857 30.662 403.061 30.0095 401.594 30.1379C400.464 30.2367 399.166 30.6944 397.7 31.5108L396.194 29.0173C397.747 28.0234 399.514 27.4397 401.496 27.2664C403.393 27.1004 404.883 27.3863 405.967 28.1241C407.051 28.8618 407.667 30.0738 407.815 31.7601L408.639 41.1821L405.945 41.4178ZM404.234 34.9662L402.746 35.1474C401.628 35.2792 400.811 35.5546 400.295 35.9735C399.779 36.3924 399.555 36.9813 399.621 37.7401C399.716 38.8277 400.388 39.317 401.636 39.2078C402.529 39.1296 403.219 38.8101 403.706 38.2494C404.2 37.6878 404.41 36.9813 404.336 36.1297L404.234 34.9662Z" fill="white"/>
</svg>
