<?xml version="1.0" encoding="utf-8"?><svg viewBox="0 0 65 65" xmlns="http://www.w3.org/2000/svg" xmlns:xlink="http://www.w3.org/1999/xlink"><style>:root>svg{display:none}:root>svg:target{display:block}</style><svg fill="none" viewBox="0 0 65 65" id="clock" xmlns="http://www.w3.org/2000/svg"><path d="M55.481 9.519C49.342 3.381 41.181 0 32.5 0 23.819 0 15.657 3.38 9.519 9.519 3.38 15.657 0 23.819 0 32.5c0 8.681 3.38 16.843 9.519 22.981C15.657 61.62 23.819 65 32.5 65c8.681 0 16.843-3.38 22.981-9.519C61.62 49.343 65 41.181 65 32.5c0-8.681-3.38-16.843-9.519-22.981zm-1.436 44.526C48.29 59.8 40.638 62.969 32.5 62.969c-8.139 0-15.79-3.17-21.545-8.924C5.201 48.29 2.031 40.638 2.031 32.5c0-8.139 3.17-15.79 8.924-21.545C16.71 5.201 24.361 2.031 32.5 2.031c8.139 0 15.79 3.17 21.545 8.924C59.8 16.71 62.969 24.361 62.969 32.5c0 8.139-3.17 15.79-8.924 21.545z" fill="#000"/><path d="M6.094 32.5C6.094 17.94 17.94 6.094 32.5 6.094a26.28 26.28 0 0114.67 4.446 1.016 1.016 0 101.13-1.688 28.304 28.304 0 00-15.8-4.79c-7.596 0-14.737 2.959-20.108 8.33-5.371 5.37-8.33 12.512-8.33 20.108 0 7.008 2.572 13.74 7.24 18.958a1.013 1.013 0 001.435.08 1.015 1.015 0 00.08-1.435A26.361 26.361 0 016.093 32.5zM56.147 16.7a1.015 1.015 0 10-1.688 1.13 26.28 26.28 0 014.447 14.67c0 14.56-11.846 26.406-26.407 26.406a26.463 26.463 0 01-16.626-5.89 1.016 1.016 0 00-1.28 1.577A28.501 28.501 0 0032.5 60.937c7.596 0 14.737-2.957 20.108-8.329 5.371-5.37 8.329-12.512 8.329-20.108a28.304 28.304 0 00-4.79-15.8zM50.104 12.816a26.675 26.675 0 011.957 1.944 1.013 1.013 0 001.434.07c.416-.377.447-1.02.07-1.435a28.713 28.713 0 00-2.107-2.092 1.016 1.016 0 10-1.354 1.513z" fill="#000"/><path d="M32.5 13.203c.56 0 1.016-.455 1.016-1.015V9.14a1.016 1.016 0 00-2.032 0v3.046c0 .561.455 1.016 1.016 1.016zM31.484 52.813v3.046a1.016 1.016 0 002.032 0v-3.047a1.016 1.016 0 00-2.032 0zM13.203 32.5c0-.56-.455-1.016-1.015-1.016H9.14a1.016 1.016 0 000 2.032h3.046c.561 0 1.016-.455 1.016-1.016zM51.797 32.5c0 .56.455 1.016 1.016 1.016h3.046a1.016 1.016 0 000-2.032h-3.047c-.56 0-1.015.455-1.015 1.016zM23.224 14.401l-1.523-2.639a1.016 1.016 0 00-1.76 1.016l1.524 2.639a1.016 1.016 0 101.76-1.016zM43.537 49.583a1.016 1.016 0 00-1.76 1.016l1.524 2.639a1.015 1.015 0 101.76-1.016l-1.524-2.639zM12.272 45.196c.172 0 .347-.044.507-.137l2.638-1.523a1.016 1.016 0 00-1.015-1.76L11.763 43.3a1.016 1.016 0 00.509 1.896zM50.092 23.36c.173 0 .347-.044.507-.137l2.639-1.523a1.016 1.016 0 00-1.016-1.76l-2.638 1.524a1.016 1.016 0 00.508 1.896zM44.688 11.39a1.016 1.016 0 00-1.387.372l-1.523 2.639a1.016 1.016 0 001.759 1.016l1.523-2.64a1.016 1.016 0 00-.372-1.386zM22.852 49.212a1.016 1.016 0 00-1.387.371l-1.523 2.639a1.016 1.016 0 101.759 1.016l1.523-2.64a1.016 1.016 0 00-.372-1.386zM49.584 43.536l2.639 1.523a1.016 1.016 0 101.016-1.76l-2.64-1.522a1.015 1.015 0 10-1.015 1.759zM15.416 21.464l-2.639-1.523a1.016 1.016 0 10-1.015 1.759l2.639 1.523a1.015 1.015 0 101.016-1.759zM39.57 45.76a1.016 1.016 0 00.879-1.524l-5.634-9.758a3.033 3.033 0 00.732-1.978c0-1.324-.85-2.453-2.031-2.872V16.25a1.016 1.016 0 00-2.032 0v13.378a3.052 3.052 0 00-2.03 2.872 3.05 3.05 0 003.602 2.995l5.634 9.757c.188.326.53.508.88.508zM31.484 32.5a1.017 1.017 0 012.032 0 1.017 1.017 0 01-2.032 0z" fill="#000"/></svg><svg fill="none" viewBox="0 0 9 17" id="facebook" xmlns="http://www.w3.org/2000/svg"><path d="M7.357 2.823H9V.12A22.45 22.45 0 006.606 0C4.237 0 2.614 1.407 2.614 3.994v2.381H0v3.022h2.614V17H5.82V9.397h2.508l.398-3.021H5.82V4.294c0-.873.25-1.471 1.538-1.471z" fill="#fff"/></svg><svg fill="none" viewBox="0 0 17 17" id="instagram" xmlns="http://www.w3.org/2000/svg"><path d="M8.5 4a4.5 4.5 0 10-.001 8.999A4.5 4.5 0 008.5 4zm0 7.42a2.92 2.92 0 110-5.84 2.92 2.92 0 110 5.84z" fill="#fff"/><path d="M12.005.053c-1.564-.073-5.438-.069-7.003 0-1.376.065-2.59.397-3.567 1.375C-.2 3.063.009 5.266.009 8.497c0 3.306-.185 5.458 1.426 7.068 1.64 1.64 3.876 1.426 7.068 1.426 3.275 0 4.406.002 5.564-.446 1.575-.612 2.763-2.019 2.88-4.547.073-1.565.069-5.438 0-7.003C16.806 2.01 15.204.2 12.004.053zm2.476 14.43c-1.072 1.072-2.559.977-5.999.977-3.541 0-4.961.052-5.998-.987-1.193-1.188-.977-3.096-.977-5.988 0-3.913-.402-6.732 3.526-6.933.902-.032 1.168-.042 3.44-.042l.031.021c3.775 0 6.737-.395 6.915 3.532.04.896.049 1.165.049 3.433 0 3.5.066 4.93-.987 5.988z" fill="#fff"/></svg><svg fill="none" viewBox="0 0 65 65" id="rec" xmlns="http://www.w3.org/2000/svg"><path d="M39.936 48.396a1.27 1.27 0 000-2.54H35.25a1.27 1.27 0 00-1.27 1.27v10.192c0 .7.57 1.27 1.27 1.27h4.686a1.27 1.27 0 000-2.54H36.52v-2.556h3.416a1.27 1.27 0 000-2.54H36.52v-2.556h3.416zM30.84 49.674a3.823 3.823 0 00-3.82-3.817h-3.767a1.27 1.27 0 00-1.27 1.27V57.317a1.27 1.27 0 002.54 0v-3.826h1.713l2.2 4.394a1.27 1.27 0 102.27-1.137l-1.863-3.721a3.82 3.82 0 001.997-3.354zm-6.318-1.278h2.498c.707 0 1.281.573 1.281 1.278 0 .693-.586 1.278-1.28 1.278h-2.499v-2.556zM53.428 49.514a1.27 1.27 0 001.795-1.796 6.382 6.382 0 00-9.01 0 6.322 6.322 0 00-1.865 4.502c0 1.701.663 3.3 1.866 4.502a6.354 6.354 0 004.504 1.861c1.631 0 3.263-.62 4.505-1.86a1.27 1.27 0 00-1.795-1.797 3.84 3.84 0 01-5.42 0 3.8 3.8 0 01-1.121-2.706 3.8 3.8 0 011.121-2.706 3.84 3.84 0 015.42 0zM13.939 47.692a4.536 4.536 0 00-4.533 4.53 4.535 4.535 0 004.533 4.526c2.497 0 4.529-2.03 4.529-4.526a4.535 4.535 0 00-4.53-4.53zm0 6.517c-1.1 0-1.994-.891-1.994-1.987a1.993 1.993 0 013.984 0 1.991 1.991 0 01-1.99 1.987z" fill="#000"/><path d="M54.812 0h-44.62C5.587 0 1.84 3.743 1.84 8.345V18.82a1.27 1.27 0 002.54 0V8.344c0-3.2 2.606-5.805 5.81-5.805h44.621a5.813 5.813 0 015.808 5.806v31.1H4.38v-9.221a1.27 1.27 0 00-2.539 0v26.432c0 4.6 3.746 8.344 8.35 8.344h44.621c4.603 0 8.347-3.743 8.347-8.344V8.344c0-4.6-3.744-8.344-8.347-8.344zm0 62.46h-44.62c-3.205 0-5.812-2.603-5.812-5.804V41.983h56.24v14.673a5.813 5.813 0 01-5.808 5.805z" fill="#000"/><path d="M36.889 9.846H15.96a3.6 3.6 0 00-3.596 3.594v15.104c0 1.98 1.614 3.59 3.596 3.59H36.89a3.598 3.598 0 003.596-3.59v-1.806l7.674 3.07c.625.25 1.353.49 2.059.49.468 0 .926-.105 1.337-.383 1.079-.73 1.079-2.182 1.079-2.728v-12.39c0-.548 0-2.001-1.078-2.732-1.03-.698-2.356-.31-3.397.106l-7.674 3.071V13.44a3.6 3.6 0 00-3.596-3.594zm0 19.749H15.96a1.056 1.056 0 01-1.057-1.052V13.44a1.07 1.07 0 011.057-1.055H36.89a1.07 1.07 0 011.057 1.055v15.103c0 .58-.474 1.052-1.057 1.052zm12.213-15.066c.488-.195.788-.268.959-.294.018.115.034.294.034.562v12.39c0 .265-.016.443-.034.559-.171-.027-.471-.1-.959-.295l-8.617-3.448v-6.026l8.617-3.448z" fill="#000"/><path d="M32.887 23.74H19.964a1.27 1.27 0 000 2.54h12.923a1.27 1.27 0 000-2.54zM20.217 18.747h.003c.701 0 1.268-.568 1.268-1.27a1.271 1.271 0 00-2.541 0c0 .702.569 1.27 1.27 1.27zM3.11 25.793c.702 0 1.27-.572 1.27-1.273a1.27 1.27 0 00-2.539 0v.007c0 .701.568 1.266 1.27 1.266z" fill="#000"/></svg><svg fill="none" viewBox="0 0 65 65" id="schedule" xmlns="http://www.w3.org/2000/svg"><g clip-path="url(#eclip0)"><path d="M12.693 5.706h6.938V3.64c0-.867.353-1.655.925-2.227a3.144 3.144 0 014.451 0c.572.572.929 1.36.929 2.227v2.066h6.934V3.64A3.158 3.158 0 0136.023.488a3.158 3.158 0 013.152 3.152v2.066h6.939v-2.04c0-.868.352-1.656.924-2.228a3.144 3.144 0 014.452 0c.572.572.929 1.36.929 2.227v2.04h1.043c1.472 0 2.807.602 3.775 1.566a5.326 5.326 0 011.57 3.775v9.922a.955.955 0 01-.954.954.955.955 0 01-.954-.954v-2.746H31.56a.95.95 0 110-1.904H56.9v-5.272c0-.946-.385-1.803-1.008-2.425a3.422 3.422 0 00-2.429-1.012h-1.044v2.037c0 .868-.356 1.656-.928 2.228a3.127 3.127 0 01-2.224.925 3.13 3.13 0 01-2.228-.925 3.142 3.142 0 01-.925-2.228V7.61h-6.938v2.012a3.157 3.157 0 01-3.153 3.153A3.158 3.158 0 0132.87 9.62V7.61h-6.934v2.012c0 .867-.357 1.655-.929 2.228a3.142 3.142 0 01-4.452 0 3.142 3.142 0 01-.924-2.228V7.61h-6.938v2.012a3.158 3.158 0 01-3.153 3.153A3.158 3.158 0 016.388 9.62V7.61H5.34c-.942 0-1.803.386-2.425 1.012a3.422 3.422 0 00-1.011 2.425v5.273h25.342a.953.953 0 110 1.903H1.904V46.34a.952.952 0 01-1.904 0V11.046C0 9.574.601 8.24 1.57 7.271A5.335 5.335 0 015.34 5.706h1.048V3.64A3.157 3.157 0 019.54.488a3.158 3.158 0 013.152 3.152v2.066zm37.945 37.009a.95.95 0 01.95-.95.95.95 0 01.953.95V51.1c0 .26-.1.49-.27.662l-5.819 6.845a.951.951 0 01-1.45-1.227l5.636-6.626v-8.039zm-5.805-.932a.95.95 0 01-1.328-.212.947.947 0 01.212-1.328 13.328 13.328 0 013.732-1.9c1.307-.425 2.7-.656 4.139-.656 1.89 0 3.685.39 5.312 1.095V25.279a.952.952 0 011.907 0v14.514a13.51 13.51 0 012.267 1.824A13.371 13.371 0 0165 51.1c0 3.703-1.5 7.057-3.926 9.483a13.366 13.366 0 01-9.486 3.93c-3.704 0-7.054-1.501-9.483-3.93a13.417 13.417 0 01-2.332-3.135H4.952a4.934 4.934 0 01-3.498-1.45A4.944 4.944 0 010 52.5v-1.85a.952.952 0 011.904 0v1.85c0 .835.345 1.598.896 2.148a3.034 3.034 0 002.152.896H38.93a13.355 13.355 0 01-.756-4.444 13.397 13.397 0 012.321-7.536.95.95 0 111.57 1.07c-.638.938-1.141 1.975-1.483 3.08a11.625 11.625 0 00-.5 3.386c0 3.178 1.288 6.057 3.368 8.137a11.47 11.47 0 008.136 3.372c3.178 0 6.057-1.289 8.14-3.372a11.474 11.474 0 003.37-8.137c0-3.178-1.29-6.057-3.37-8.137a11.477 11.477 0 00-8.14-3.372c-1.24 0-2.436.198-3.552.558a11.503 11.503 0 00-3.202 1.634zm-4.167-19.52h11.242c.525 0 .954.425.954.95v11.243a.953.953 0 01-.954.954H40.666a.953.953 0 01-.954-.954V23.213c0-.525.428-.95.953-.95zm10.292 1.904h-9.339v9.339h9.339v-9.339zM23.78 38.357h11.243c.529 0 .953.428.953.954v11.242a.953.953 0 01-.953.954H23.78a.952.952 0 01-.95-.954V39.311c0-.526.425-.954.95-.954zm10.293 1.907h-9.339v9.339h9.339v-9.339zm-10.293-18h11.243a.95.95 0 01.953.95v11.242a.95.95 0 01-.953.954H23.78a.95.95 0 01-.95-.954V23.213a.95.95 0 01.95-.95zm10.293 1.903h-9.339v9.339h9.339v-9.339zM6.895 38.357h11.246c.525 0 .95.428.95.954v11.242a.952.952 0 01-.95.954H6.895a.952.952 0 01-.95-.954V39.311c0-.526.425-.954.95-.954zm10.292 1.907H7.85v9.339h9.338v-9.339zm-10.292-18h11.246a.95.95 0 01.95.95v11.242a.95.95 0 01-.95.954H6.895a.95.95 0 01-.95-.954V23.213a.95.95 0 01.95-.95zm10.292 1.903H7.85v9.339h9.338v-9.339zM49.267 2.42c-.342 0-.656.14-.882.367a1.239 1.239 0 00-.367.878v5.982c0 .341.14.654.367.881a1.237 1.237 0 001.76 0c.226-.227.367-.54.367-.881V3.666c0-.342-.14-.652-.367-.879a1.238 1.238 0 00-.879-.367zm-38.845.338a1.246 1.246 0 00-1.763 0c-.227.227-.367.54-.367.882v5.981c0 .342.14.655.367.882.226.227.54.367.881.367.342 0 .655-.14.882-.367.227-.227.367-.54.367-.882V3.64c0-.342-.14-.655-.367-.882zm12.361-.367c-.345 0-.654.14-.881.367-.227.227-.367.54-.367.882v5.981c0 .342.14.655.367.882a1.24 1.24 0 001.76 0c.226-.227.367-.54.367-.882V3.64c0-.342-.14-.655-.367-.882a1.238 1.238 0 00-.878-.367zm13.24 0c-.342 0-.655.14-.882.367-.226.227-.367.54-.367.882v5.981c0 .342.14.655.367.882a1.247 1.247 0 002.13-.882V3.64c0-.342-.14-.655-.366-.882a1.246 1.246 0 00-.882-.367z" fill="#000"/></g><defs><clipPath id="eclip0"><path fill="#fff" d="M0 0h65v65H0z"/></clipPath></defs></svg><svg fill="none" viewBox="0 0 16 12" id="twitter" xmlns="http://www.w3.org/2000/svg"><path d="M5.032 12c6.038 0 9.34-4.616 9.34-8.62 0-.13-.003-.261-.01-.39A6.418 6.418 0 0016 1.42a6.98 6.98 0 01-1.885.477c.678-.375 1.198-.968 1.443-1.675-.634.347-1.336.599-2.084.735A3.412 3.412 0 0011.078 0C9.265 0 7.795 1.357 7.795 3.029c0 .238.029.469.085.69C5.152 3.594 2.732 2.389 1.113.556A2.846 2.846 0 00.67 2.077c0 1.051.58 1.98 1.46 2.522A3.468 3.468 0 01.644 4.22v.039c0 1.467 1.131 2.692 2.633 2.97a3.552 3.552 0 01-1.482.051c.418 1.204 1.63 2.08 3.066 2.104a6.943 6.943 0 01-4.077 1.297c-.265 0-.526-.014-.783-.042A9.865 9.865 0 005.032 12" fill="#fff"/></svg></svg>