<svg width="65" height="65" viewBox="0 0 65 65" fill="none" xmlns="http://www.w3.org/2000/svg">
<path d="M55.4811 9.51895C49.3425 3.38051 41.1811 0 32.5 0C23.8189 0 15.6575 3.38051 9.51895 9.51895C3.38038 15.6574 0 23.8189 0 32.5C0 41.1811 3.38051 49.3425 9.51895 55.4811C15.6574 61.6196 23.8189 65 32.5 65C41.1811 65 49.3425 61.6195 55.4811 55.4811C61.6196 49.3426 65 41.1811 65 32.5C65 23.8189 61.6195 15.6575 55.4811 9.51895ZM54.0447 54.0447C48.2899 59.7995 40.6385 62.9688 32.5 62.9688C24.3615 62.9688 16.7101 59.7995 10.9553 54.0447C5.20051 48.2899 2.03125 40.6385 2.03125 32.5C2.03125 24.3615 5.20051 16.7101 10.9553 10.9553C16.7101 5.20051 24.3615 2.03125 32.5 2.03125C40.6385 2.03125 48.2899 5.20051 54.0447 10.9553C59.7995 16.7101 62.9688 24.3615 62.9688 32.5C62.9688 40.6385 59.7995 48.2899 54.0447 54.0447Z" fill="black"/>
<path d="M6.09375 32.5C6.09375 17.9396 17.9396 6.09375 32.5 6.09375C37.7518 6.09375 42.8246 7.63128 47.1701 10.5402C47.6361 10.8522 48.2669 10.7273 48.579 10.2611C48.891 9.79507 48.7661 9.16424 48.2999 8.85219C43.6191 5.71873 38.1555 4.0625 32.5 4.0625C24.904 4.0625 17.7628 7.02051 12.3916 12.3916C7.02051 17.7628 4.0625 24.904 4.0625 32.5C4.0625 39.5078 6.63381 46.2404 11.3029 51.4577C11.5035 51.6819 11.7813 51.796 12.06 51.796C12.3011 51.796 12.5432 51.7107 12.737 51.5371C13.1549 51.163 13.1906 50.521 12.8164 50.1031C8.48136 45.2588 6.09375 39.0072 6.09375 32.5Z" fill="black"/>
<path d="M56.1474 16.7003C55.8354 16.2341 55.2045 16.1092 54.7385 16.4213C54.2724 16.7333 54.1474 17.3642 54.4595 17.8302C57.3682 22.1756 58.9057 27.2484 58.9057 32.5C58.9057 47.0604 47.0599 58.9063 32.4995 58.9063C26.4587 58.9063 20.5537 56.8142 15.8726 53.0155C15.437 52.6621 14.7974 52.7286 14.444 53.1642C14.0905 53.5998 14.157 54.2393 14.5926 54.5928C19.6346 58.6842 25.994 60.9375 32.4995 60.9375C40.0955 60.9375 47.2367 57.9795 52.6078 52.6084C57.979 47.2372 60.937 40.096 60.937 32.5C60.937 26.8446 59.2808 21.3811 56.1474 16.7003Z" fill="black"/>
<path d="M50.1039 12.8165C50.7867 13.4276 51.4451 14.0815 52.0607 14.7599C52.2612 14.9808 52.5367 15.0931 52.8132 15.0931C53.0565 15.0931 53.3009 15.006 53.4954 14.8295C53.9107 14.4526 53.9419 13.8102 53.565 13.3948C52.9023 12.6646 52.1935 11.9607 51.4584 11.3029C51.0405 10.9289 50.3984 10.9644 50.0244 11.3823C49.6504 11.8003 49.6858 12.4424 50.1039 12.8165Z" fill="black"/>
<path d="M32.5 13.2031C33.0609 13.2031 33.5156 12.7484 33.5156 12.1875V9.14062C33.5156 8.57975 33.0609 8.125 32.5 8.125C31.9391 8.125 31.4844 8.57975 31.4844 9.14062V12.1875C31.4844 12.7484 31.9391 13.2031 32.5 13.2031Z" fill="black"/>
<path d="M31.4844 52.8125V55.8594C31.4844 56.4203 31.9391 56.875 32.5 56.875C33.0609 56.875 33.5156 56.4203 33.5156 55.8594V52.8125C33.5156 52.2516 33.0609 51.7969 32.5 51.7969C31.9391 51.7969 31.4844 52.2516 31.4844 52.8125Z" fill="black"/>
<path d="M13.2031 32.5C13.2031 31.9391 12.7484 31.4844 12.1875 31.4844H9.14062C8.57975 31.4844 8.125 31.9391 8.125 32.5C8.125 33.0609 8.57975 33.5156 9.14062 33.5156H12.1875C12.7484 33.5156 13.2031 33.0609 13.2031 32.5Z" fill="black"/>
<path d="M51.7969 32.5C51.7969 33.0609 52.2516 33.5156 52.8125 33.5156H55.8594C56.4203 33.5156 56.875 33.0609 56.875 32.5C56.875 31.9391 56.4203 31.4844 55.8594 31.4844H52.8125C52.2516 31.4844 51.7969 31.9391 51.7969 32.5Z" fill="black"/>
<path d="M23.2241 14.401L21.7006 11.7623C21.4202 11.2765 20.799 11.1103 20.3133 11.3906C19.8276 11.671 19.6611 12.2922 19.9416 12.7779L21.465 15.4167C21.6532 15.7424 21.9945 15.9246 22.3456 15.9246C22.5178 15.9246 22.6925 15.8807 22.8525 15.7884C23.3381 15.5079 23.5045 14.8868 23.2241 14.401Z" fill="black"/>
<path d="M43.5366 49.5833C43.2561 49.0976 42.6348 48.9314 42.1492 49.2116C41.6635 49.492 41.4971 50.1132 41.7775 50.5989L43.3009 53.2376C43.4891 53.5634 43.8305 53.7455 44.1815 53.7455C44.3538 53.7455 44.5285 53.7016 44.6884 53.6093C45.1741 53.3289 45.3406 52.7077 45.0601 52.222L43.5366 49.5833Z" fill="black"/>
<path d="M12.2717 45.1955C12.4439 45.1955 12.6186 45.1515 12.7786 45.0593L15.4173 43.5358C15.903 43.2554 16.0695 42.6342 15.789 42.1485C15.5086 41.6627 14.8873 41.4966 14.4017 41.7767L11.763 43.3002C11.2772 43.5806 11.1108 44.2018 11.3912 44.6875C11.5792 45.0133 11.9206 45.1955 12.2717 45.1955Z" fill="black"/>
<path d="M50.0924 23.3595C50.2647 23.3595 50.4394 23.3156 50.5993 23.2233L53.238 21.6999C53.7238 21.4194 53.8902 20.7982 53.6098 20.3125C53.3293 19.8268 52.7081 19.6606 52.2224 19.9408L49.5837 21.4642C49.098 21.7447 48.9315 22.3659 49.212 22.8516C49.4001 23.1773 49.7415 23.3595 50.0924 23.3595Z" fill="black"/>
<path d="M44.6883 11.3906C44.2026 11.11 43.5814 11.2765 43.3009 11.7623L41.7775 14.401C41.4971 14.8867 41.6635 15.5079 42.1492 15.7884C42.3092 15.8808 42.4837 15.9246 42.6561 15.9246C43.0072 15.9246 43.3485 15.7424 43.5367 15.4167L45.0601 12.7779C45.3404 12.2922 45.174 11.671 44.6883 11.3906Z" fill="black"/>
<path d="M22.8524 49.2115C22.3666 48.9311 21.7455 49.0975 21.465 49.5833L19.9416 52.222C19.6611 52.7077 19.8276 53.3289 20.3133 53.6093C20.4733 53.7017 20.6478 53.7455 20.8202 53.7455C21.1713 53.7455 21.5126 53.5634 21.7008 53.2376L23.2242 50.5989C23.5045 50.1132 23.3381 49.492 22.8524 49.2115Z" fill="black"/>
<path d="M49.584 43.5357L52.2227 45.0592C52.3826 45.1516 52.5572 45.1954 52.7296 45.1954C53.0806 45.1954 53.422 45.0132 53.6102 44.6875C53.8906 44.2017 53.7242 43.5805 53.2384 43.3001L50.5997 41.7767C50.114 41.4961 49.4928 41.6627 49.2124 42.1484C48.9318 42.6341 49.0982 43.2553 49.584 43.5357Z" fill="black"/>
<path d="M15.4163 21.4642L12.7775 19.9407C12.2918 19.6602 11.6706 19.8267 11.3902 20.3124C11.1098 20.7982 11.2762 21.4193 11.7619 21.6998L14.4006 23.2232C14.5606 23.3156 14.7352 23.3594 14.9076 23.3594C15.2586 23.3594 15.6 23.1773 15.7881 22.8515C16.0684 22.3658 15.902 21.7446 15.4163 21.4642Z" fill="black"/>
<path d="M39.5703 45.7604C39.7426 45.7604 39.9172 45.7165 40.0772 45.6242C40.5629 45.3437 40.7294 44.7225 40.4489 44.2368L34.8147 34.4781C35.2706 33.9452 35.5469 33.2545 35.5469 32.5C35.5469 31.176 34.6977 30.047 33.5156 29.6278V16.25C33.5156 15.6891 33.0609 15.2344 32.5 15.2344C31.9391 15.2344 31.4844 15.6891 31.4844 16.25V29.6278C30.3023 30.047 29.4531 31.176 29.4531 32.5C29.4531 34.1801 30.8199 35.5469 32.5 35.5469C32.6901 35.5469 32.8759 35.5285 33.0564 35.4951L38.6899 45.2524C38.878 45.5782 39.2194 45.7604 39.5703 45.7604ZM31.4844 32.5C31.4844 31.94 31.94 31.4844 32.5 31.4844C33.06 31.4844 33.5156 31.94 33.5156 32.5C33.5156 33.06 33.06 33.5156 32.5 33.5156C31.94 33.5156 31.4844 33.06 31.4844 32.5Z" fill="black"/>
</svg>
