<svg width="17" height="17" viewBox="0 0 17 17" fill="none" xmlns="http://www.w3.org/2000/svg">
<path d="M8.5 4C6.01323 4 4 6.01543 4 8.5C4 10.9868 6.01543 13 8.5 13C10.9868 13 13 10.9846 13 8.5C13 6.01324 10.9846 4 8.5 4ZM8.5 11.4208C6.88576 11.4208 5.57917 10.1135 5.57917 8.5C5.57917 6.88649 6.88649 5.57917 8.5 5.57917C10.1135 5.57917 11.4208 6.88649 11.4208 8.5C11.4216 10.1135 10.1142 11.4208 8.5 11.4208Z" fill="white"/>
<path d="M12.005 0.0533989C10.441 -0.0195595 6.56712 -0.0160178 5.0017 0.0533989C3.62612 0.117857 2.41274 0.450065 1.43454 1.42827C-0.200297 3.06311 0.00866098 5.26603 0.00866098 8.49673C0.00866098 11.8032 -0.175506 13.9552 1.43454 15.5652C3.07574 17.2057 5.31054 16.9911 8.50299 16.9911C11.7783 16.9911 12.9088 16.9932 14.067 16.5448C15.6416 15.9335 16.8302 14.5261 16.9463 11.998C17.02 10.4333 17.0157 6.56015 16.9463 4.99473C16.8061 2.01052 15.2045 0.200732 12.005 0.0533989ZM14.4806 14.4836C13.4089 15.5553 11.9221 15.4597 8.48245 15.4597C4.94079 15.4597 3.52058 15.5121 2.48429 14.4729C1.29074 13.2851 1.50679 11.3775 1.50679 8.4854C1.50679 4.57186 1.10516 1.7534 5.03287 1.55223C5.93529 1.52036 6.20091 1.50973 8.47254 1.50973L8.50441 1.53098C12.2791 1.53098 15.2407 1.13573 15.4185 5.06273C15.4588 5.95877 15.468 6.22794 15.468 8.49603C15.4673 11.9966 15.5339 13.4253 14.4806 14.4836Z" fill="white"/>
</svg>
