<svg width="65" height="65" viewBox="0 0 65 65" fill="none" xmlns="http://www.w3.org/2000/svg">
<path d="M39.9361 48.396C40.6372 48.396 41.2057 47.8275 41.2057 47.1265C41.2057 46.4254 40.6372 45.8569 39.9361 45.8569H35.2502C34.5491 45.8569 33.9806 46.4254 33.9806 47.1265V57.3176C33.9806 58.0187 34.5491 58.5872 35.2502 58.5872H39.9361C40.6372 58.5872 41.2057 58.0187 41.2057 57.3176C41.2057 56.6166 40.6372 56.0481 39.9361 56.0481H36.5197V53.4916H39.9361C40.6372 53.4916 41.2057 52.9231 41.2057 52.2221C41.2057 51.5211 40.6372 50.9526 39.9361 50.9526H36.5197V48.396H39.9361Z" fill="black"/>
<path d="M30.8402 49.6743C30.8402 47.5694 29.1268 45.8569 27.0205 45.8569H23.2529C22.5519 45.8569 21.9834 46.4254 21.9834 47.1265V52.2221V57.3178C21.9834 58.0188 22.5519 58.5873 23.2529 58.5873C23.9539 58.5873 24.5224 58.0188 24.5224 57.3178V53.4916H26.2362L28.4354 57.8859C28.6579 58.3305 29.1061 58.5874 29.5716 58.5874C29.7625 58.5874 29.9564 58.5441 30.1388 58.4528C30.7657 58.139 31.0196 57.3764 30.7059 56.7494L28.8434 53.028C30.0321 52.3803 30.8402 51.1199 30.8402 49.6743ZM24.5224 48.396H27.0205C27.7267 48.396 28.3012 48.9694 28.3012 49.6743C28.3012 50.3672 27.7147 50.9524 27.0205 50.9524H24.5224V48.396Z" fill="black"/>
<path d="M53.4282 49.5144C53.9244 50.01 54.728 50.0094 55.2237 49.5136C55.7192 49.0176 55.7188 48.2137 55.223 47.7181C52.739 45.2364 48.6977 45.2367 46.2139 47.7181C45.0105 48.9203 44.3476 50.5192 44.3476 52.2201C44.3476 53.921 45.0105 55.52 46.2137 56.7223C47.4557 57.963 49.0871 58.5835 50.7183 58.5835C52.3495 58.5835 53.9808 57.963 55.2228 56.7223C55.7187 56.2268 55.7191 55.4229 55.2236 54.9268C54.728 54.4309 53.9244 54.4305 53.4281 54.926C51.9339 56.419 49.5026 56.419 48.0082 54.926C47.285 54.2034 46.8866 53.2423 46.8866 52.2201C46.8866 51.1979 47.285 50.237 48.0083 49.5144C49.5026 48.0215 51.934 48.0215 53.4282 49.5144Z" fill="black"/>
<path d="M13.9387 47.6923C11.4392 47.6923 9.40583 49.7244 9.40583 52.2222C9.40583 54.718 11.4394 56.7485 13.9387 56.7485C16.4361 56.7485 18.4679 54.718 18.4679 52.2222C18.4679 49.7244 16.4361 47.6923 13.9387 47.6923ZM13.9387 54.2094C12.8393 54.2094 11.9449 53.3179 11.9449 52.2222C11.9449 51.1246 12.8393 50.2313 13.9387 50.2313C15.0361 50.2313 15.9288 51.1244 15.9288 52.2222C15.9288 53.3178 15.0361 54.2094 13.9387 54.2094Z" fill="black"/>
<path d="M54.8121 0H10.1918C5.58726 0 1.841 3.74321 1.841 8.3445V18.82C1.841 19.5211 2.40949 20.0896 3.11053 20.0896C3.81156 20.0896 4.38006 19.5211 4.38006 18.82V8.3445C4.38006 5.14338 6.98717 2.53906 10.1918 2.53906H54.8121C58.0148 2.53906 60.6203 5.14338 60.6203 8.3445V39.4443H4.38006V30.224C4.38006 29.5229 3.81156 28.9545 3.11053 28.9545C2.40949 28.9545 1.841 29.5229 1.841 30.224V56.6556C1.841 61.2568 5.58726 65 10.1918 65H54.8121C59.4147 65 63.1594 61.2568 63.1594 56.6555V8.3445C63.1594 3.74321 59.4147 0 54.8121 0V0ZM54.8121 62.4609H10.1918C6.98717 62.4609 4.38006 59.8566 4.38006 56.6555V41.9833H60.6203V56.6555C60.6203 59.8566 58.0148 62.4609 54.8121 62.4609Z" fill="black"/>
<path d="M36.8886 9.84583H15.9615C13.9785 9.84583 12.3651 11.4581 12.3651 13.4401V28.5435C12.3651 30.5235 13.9785 32.1341 15.9615 32.1341H36.8886C38.8716 32.1341 40.4849 30.5233 40.4849 28.5435V26.7375L48.1588 29.8083C48.7838 30.0586 49.5121 30.2985 50.2177 30.2985C50.6857 30.2985 51.1436 30.1929 51.5547 29.9147C52.634 29.1842 52.634 27.7329 52.634 27.1867V14.7967C52.634 14.2495 52.634 12.7957 51.5557 12.0653C50.5254 11.3672 49.1996 11.7553 48.1591 12.1714L40.4849 15.2422V13.44C40.4849 11.4581 38.8716 9.84583 36.8886 9.84583ZM36.8886 29.5949H15.9615C15.3785 29.5949 14.9042 29.1232 14.9042 28.5434V13.44C14.9042 12.8681 15.3883 12.3848 15.9615 12.3848H36.8886C37.4617 12.3848 37.9458 12.8681 37.9458 13.44V17.0922V17.0962V24.8832V24.8872V28.5432C37.9458 29.1232 37.4715 29.5949 36.8886 29.5949ZM49.1018 14.5289C49.5895 14.334 49.8896 14.2609 50.0606 14.2345C50.0786 14.3503 50.095 14.5293 50.095 14.7967V27.1867C50.095 27.4525 50.0786 27.6304 50.0606 27.7456C49.8898 27.7193 49.59 27.6463 49.1022 27.4511L40.4848 24.0026V17.977L49.1018 14.5289Z" fill="black"/>
<path d="M32.8873 23.74H19.9637C19.2627 23.74 18.6942 24.3085 18.6942 25.0095C18.6942 25.7106 19.2627 26.2791 19.9637 26.2791H32.8873C33.5883 26.2791 34.1568 25.7106 34.1568 25.0095C34.1568 24.3085 33.5883 23.74 32.8873 23.74Z" fill="black"/>
<path d="M20.2167 18.7472H20.2203C20.9213 18.7472 21.488 18.1787 21.488 17.4777C21.488 16.7766 20.9177 16.2081 20.2166 16.2081C19.5154 16.2081 18.947 16.7766 18.947 17.4777C18.947 18.1787 19.5157 18.7472 20.2167 18.7472Z" fill="black"/>
<path d="M3.11053 25.7932C3.81156 25.7932 4.38006 25.2212 4.38006 24.5201C4.38006 23.8191 3.81156 23.2506 3.11053 23.2506C2.40949 23.2506 1.841 23.8191 1.841 24.5201V24.5274C1.841 25.2284 2.40949 25.7932 3.11053 25.7932Z" fill="black"/>
</svg>
