<svg width="65" height="65" viewBox="0 0 65 65" fill="none" xmlns="http://www.w3.org/2000/svg">
<g clip-path="url(#clip0)">
<path d="M12.6926 5.70583H19.6309V3.64017C19.6309 2.77283 19.9836 1.98483 20.5557 1.41252C21.1244 0.843901 21.9124 0.487671 22.7834 0.487671C23.6506 0.487671 24.4389 0.844028 25.0074 1.41252C25.5795 1.98483 25.9358 2.77283 25.9358 3.64017V5.70583H32.8704V3.64017C32.8704 2.77283 33.2268 1.98483 33.7953 1.41252C34.3675 0.843901 35.1556 0.487671 36.0228 0.487671C36.8902 0.487671 37.6783 0.844028 38.2506 1.41252C38.8228 1.98483 39.1754 2.77283 39.1754 3.64017V5.70583H46.1136V3.66531C46.1136 2.79809 46.4662 2.00984 47.0384 1.43766C47.6069 0.869165 48.395 0.512935 49.2662 0.512935C50.1334 0.512935 50.9215 0.869165 51.4902 1.43766C52.0625 2.00984 52.4187 2.79809 52.4187 3.66531V5.70583H53.4624C54.9343 5.70583 56.2693 6.3067 57.2373 7.27129C58.2053 8.2393 58.8063 9.57447 58.8063 11.0461V20.9679C58.8063 21.4933 58.3781 21.9215 57.8527 21.9215C57.3272 21.9215 56.899 21.4933 56.899 20.9679V18.222H31.5604C31.0314 18.222 30.6067 17.7973 30.6067 17.272C30.6067 16.743 31.0314 16.3183 31.5604 16.3183H56.899V11.0462C56.899 10.0998 56.5139 9.24337 55.8912 8.62067C55.265 7.99454 54.4086 7.60949 53.4621 7.60949H52.4184V9.64645C52.4184 10.5137 52.0622 11.3018 51.4899 11.874C50.9213 12.4461 50.1333 12.7988 49.2659 12.7988C48.3949 12.7988 47.6068 12.4461 47.0382 11.874C46.466 11.3018 46.1133 10.5137 46.1133 9.64645V7.60949H39.1752V9.62119C39.1752 10.4885 38.8225 11.2765 38.2503 11.8488C37.678 12.4175 36.8899 12.7737 36.0226 12.7737C35.1554 12.7737 34.3672 12.4173 33.795 11.8488C33.2264 11.2765 32.8702 10.4885 32.8702 9.62119V7.60949H25.9355V9.62119C25.9355 10.4885 25.5793 11.2765 25.0071 11.8488C24.4385 12.4175 23.6504 12.7737 22.7831 12.7737C21.9122 12.7737 21.1241 12.4173 20.5555 11.8488C19.9833 11.2765 19.6306 10.4885 19.6306 9.62119V7.60949H12.6926V9.62119C12.6926 10.4885 12.3363 11.2765 11.7678 11.8488C11.1956 12.4175 10.4075 12.7737 9.54015 12.7737C8.67293 12.7737 7.88468 12.4173 7.3125 11.8488C6.74388 11.2765 6.38765 10.4885 6.38765 9.62119V7.60949H5.34041C4.39753 7.60949 3.53742 7.99454 2.91497 8.62067C2.29239 9.24325 1.90366 10.0997 1.90366 11.0462V16.3185H27.2459C27.7714 16.3185 28.1996 16.7431 28.1996 17.2721C28.1996 17.7976 27.7714 18.2221 27.2459 18.2221H1.90379V46.3388C1.90379 46.8643 1.47913 47.2889 0.953799 47.2889C0.42834 47.2889 0.000126953 46.8642 0.000126953 46.3388V11.0462C0 9.57447 0.600996 8.2393 1.56901 7.27129C2.53703 6.3067 3.8722 5.70583 5.34041 5.70583H6.38765V3.64017C6.38765 2.77283 6.74032 1.98483 7.3125 1.41252C7.88468 0.843901 8.67293 0.487671 9.54015 0.487671C10.4075 0.487671 11.1955 0.844028 11.7678 1.41252C12.3364 1.98483 12.6926 2.77283 12.6926 3.64017V5.70583ZM50.6375 42.715C50.6375 42.1895 51.0622 41.765 51.5875 41.765C52.1165 41.765 52.5412 42.1896 52.5412 42.715V51.1C52.5412 51.3591 52.4404 51.5894 52.2713 51.7623L46.4521 58.6068C46.1138 59.01 45.5165 59.0603 45.1134 58.7184C44.714 58.3802 44.6635 57.7829 45.0018 57.3797L50.6375 50.7545V42.715ZM44.8329 41.7829C44.4045 42.0924 43.8108 41.9953 43.5049 41.5706C43.1954 41.1458 43.289 40.5522 43.7172 40.2427C44.8401 39.4257 46.0959 38.7816 47.4491 38.3426C48.7556 37.9178 50.1483 37.6875 51.5878 37.6875C53.4771 37.6875 55.2729 38.0762 56.8995 38.7816V25.2792C56.8995 24.7537 57.3277 24.3291 57.8532 24.3291C58.3786 24.3291 58.8068 24.7539 58.8068 25.2792V39.7927C59.6273 40.3182 60.3867 40.93 61.074 41.6173C63.4994 44.0429 65 47.3969 65 51.1C65 54.8031 63.4994 58.157 61.0737 60.5826C58.6446 63.0118 55.2943 64.5124 51.5875 64.5124C47.8844 64.5124 44.534 63.0118 42.1049 60.5826C41.1837 59.6613 40.3956 58.6067 39.773 57.4481H4.95181C3.58795 57.4481 2.3499 56.894 1.45387 55.9978C0.557832 55.0982 0 53.8637 0 52.4999V50.6502C0 50.1247 0.42834 49.7003 0.953672 49.7003C1.479 49.7003 1.90366 50.1248 1.90366 50.6502V52.4999C1.90366 53.3347 2.2491 54.0977 2.79982 54.6483C3.35397 55.2024 4.11341 55.5445 4.95181 55.5445H38.9309C38.4415 54.1553 38.1752 52.6584 38.1752 51.1C38.1752 49.7325 38.384 48.408 38.7691 47.1559C39.1685 45.8639 39.7551 44.6548 40.4964 43.5643C40.7914 43.1288 41.3852 43.0172 41.817 43.3125C42.2489 43.6076 42.3603 44.2013 42.0653 44.6332C41.4284 45.5724 40.9246 46.6089 40.5826 47.7137C40.2587 48.779 40.0825 49.9162 40.0825 51.1001C40.0825 54.2778 41.3707 57.1568 43.4507 59.2368C45.5344 61.3204 48.4098 62.6088 51.5875 62.6088C54.7652 62.6088 57.6441 61.3204 59.7276 59.2368C61.8079 57.1568 63.0962 54.2778 63.0962 51.1001C63.0962 47.9224 61.8079 45.0434 59.7276 42.9634C57.6441 40.8797 54.7652 39.5914 51.5875 39.5914C50.3461 39.5914 49.1513 39.7894 48.0355 40.1492C46.8768 40.527 45.7972 41.0812 44.8329 41.7829ZM40.6655 22.2634H51.9078C52.4333 22.2634 52.8616 22.6881 52.8616 23.2134V34.4559C52.8616 34.9849 52.4333 35.4096 51.9078 35.4096H40.6655C40.14 35.4096 39.7118 34.9849 39.7118 34.4559V23.2134C39.712 22.6881 40.1402 22.2634 40.6655 22.2634ZM50.9578 24.1671H41.6192V33.5059H50.9578V24.1671ZM23.7802 38.357H35.0227C35.5517 38.357 35.9764 38.7852 35.9764 39.3107V50.553C35.9764 51.0785 35.5517 51.5067 35.0227 51.5067H23.7802C23.2548 51.5067 22.8302 51.0785 22.8302 50.553V39.3107C22.8302 38.7852 23.2549 38.357 23.7802 38.357ZM34.0727 40.2642H24.734V49.603H34.0727V40.2642ZM23.7802 22.2634H35.0227C35.5517 22.2634 35.9764 22.6881 35.9764 23.2134V34.4559C35.9764 34.9849 35.5517 35.4096 35.0227 35.4096H23.7802C23.2548 35.4096 22.8302 34.9849 22.8302 34.4559V23.2134C22.8302 22.6881 23.2549 22.2634 23.7802 22.2634ZM34.0727 24.1671H24.734V33.5059H34.0727V24.1671ZM6.89508 38.357H18.141C18.6664 38.357 19.0911 38.7852 19.0911 39.3107V50.553C19.0911 51.0785 18.6664 51.5067 18.141 51.5067H6.89508C6.36962 51.5067 5.94509 51.0785 5.94509 50.553V39.3107C5.94509 38.7852 6.36975 38.357 6.89508 38.357ZM17.1874 40.2642H7.84875V49.603H17.1874V40.2642ZM6.89508 22.2634H18.141C18.6664 22.2634 19.0911 22.6881 19.0911 23.2134V34.4559C19.0911 34.9849 18.6664 35.4096 18.141 35.4096H6.89508C6.36962 35.4096 5.94509 34.9849 5.94509 34.4559V23.2134C5.94509 22.6881 6.36975 22.2634 6.89508 22.2634ZM17.1874 24.1671H7.84875V33.5059H17.1874V24.1671ZM49.2664 2.42015C48.9246 2.42015 48.6114 2.56043 48.3846 2.78717C48.158 3.01391 48.0176 3.32355 48.0176 3.66531V6.65594V9.64658C48.0176 9.98834 48.1579 10.3014 48.3846 10.5281C48.6114 10.7549 48.9246 10.8953 49.2664 10.8953C49.6082 10.8953 49.9178 10.755 50.1445 10.5281C50.3712 10.3014 50.5116 9.98834 50.5116 9.64658V6.65594V3.66531C50.5116 3.32355 50.3713 3.01391 50.1445 2.78717C49.9178 2.56056 49.6083 2.42015 49.2664 2.42015ZM10.422 2.75848C10.1952 2.53187 9.88216 2.39146 9.54027 2.39146C9.19852 2.39146 8.88532 2.53174 8.65858 2.75848C8.43185 2.98522 8.29156 3.29829 8.29156 3.64017V6.65594V9.62131C8.29156 9.9632 8.43185 10.2763 8.65858 10.503C8.88532 10.7296 9.19852 10.87 9.54027 10.87C9.88216 10.87 10.1952 10.7297 10.422 10.503C10.6487 10.2763 10.789 9.9632 10.789 9.62131V6.65594V3.64017C10.789 3.29816 10.6486 2.98522 10.422 2.75848ZM22.7835 2.39146C22.438 2.39146 22.1286 2.53174 21.9018 2.75848C21.6751 2.98522 21.5348 3.29829 21.5348 3.64017V6.65594V9.62131C21.5348 9.9632 21.6751 10.2763 21.9018 10.503C22.1286 10.7296 22.4381 10.87 22.7835 10.87C23.1253 10.87 23.4348 10.7297 23.6615 10.503C23.8883 10.2763 24.0287 9.9632 24.0287 9.62131V6.65594V3.64017C24.0287 3.29829 23.8884 2.98522 23.6615 2.75848C23.4348 2.53174 23.1253 2.39146 22.7835 2.39146ZM36.0231 2.39146C35.6813 2.39146 35.3681 2.53174 35.1415 2.75848C34.9148 2.98522 34.7744 3.29829 34.7744 3.64017V6.65594V9.62131C34.7744 9.9632 34.9146 10.2763 35.1415 10.503C35.3681 10.7296 35.6813 10.87 36.0231 10.87C36.365 10.87 36.678 10.7297 36.9048 10.503C37.1315 10.2763 37.2719 9.9632 37.2719 9.62131V6.65594V3.64017C37.2719 3.29829 37.1316 2.98522 36.9048 2.75848C36.678 2.53174 36.365 2.39146 36.0231 2.39146Z" fill="black"/>
</g>
<defs>
<clipPath id="clip0">
<rect width="65" height="65" fill="white"/>
</clipPath>
</defs>
</svg>
