<svg width="16" height="12" viewBox="0 0 16 12" fill="none" xmlns="http://www.w3.org/2000/svg">
<path d="M5.03186 11.9999C11.0699 11.9999 14.3718 7.38358 14.3718 3.38065C14.3718 3.24952 14.3689 3.11896 14.3625 2.98907C15.0034 2.56145 15.5605 2.02782 16 1.42041C15.4119 1.66171 14.7788 1.82404 14.1149 1.89738C14.7926 1.52225 15.313 0.92903 15.5583 0.221809C14.9241 0.568773 14.2217 0.820885 13.4739 0.95708C12.8749 0.368255 12.022 0 11.0776 0C9.26489 0 7.7948 1.35665 7.7948 3.02895C7.7948 3.26676 7.82361 3.49792 7.87988 3.71973C5.15161 3.59299 2.7323 2.38763 1.1134 0.554579C0.831543 1.00225 0.668945 1.52236 0.668945 2.07728C0.668945 3.1282 1.24854 4.0561 2.12976 4.59885C1.59119 4.58353 1.08533 4.44711 0.643066 4.22001C0.642578 4.23274 0.642578 4.24513 0.642578 4.25865C0.642578 5.72581 1.77405 6.95077 3.27625 7.22834C3.00037 7.29762 2.71008 7.33491 2.41064 7.33491C2.19946 7.33491 1.99365 7.31576 1.79358 7.28027C2.21155 8.48395 3.42346 9.35981 4.86023 9.38436C3.73669 10.197 2.32129 10.6811 0.783081 10.6811C0.518433 10.6811 0.256958 10.6671 0 10.6392C1.45276 11.4985 3.17798 12 5.03198 12" fill="white"/>
</svg>
